%TF.GenerationSoftware,KiCad,Pcbnew,5.1.8-db9833491~88~ubuntu18.04.1*%
%TF.CreationDate,2020-12-07T14:30:44+00:00*%
%TF.ProjectId,z80_monitor,7a38305f-6d6f-46e6-9974-6f722e6b6963,1*%
%TF.SameCoordinates,Original*%
%TF.FileFunction,Legend,Bot*%
%TF.FilePolarity,Positive*%
%FSLAX46Y46*%
G04 Gerber Fmt 4.6, Leading zero omitted, Abs format (unit mm)*
G04 Created by KiCad (PCBNEW 5.1.8-db9833491~88~ubuntu18.04.1) date 2020-12-07 14:30:44*
%MOMM*%
%LPD*%
G01*
G04 APERTURE LIST*
%ADD10C,0.800000*%
%ADD11C,5.400000*%
%ADD12C,1.700000*%
%ADD13O,1.700000X1.700000*%
%ADD14R,1.700000X1.700000*%
G04 APERTURE END LIST*
%LPC*%
D10*
%TO.C,H2*%
X131606891Y-120488109D03*
X130175000Y-119895000D03*
X128743109Y-120488109D03*
X128150000Y-121920000D03*
X128743109Y-123351891D03*
X130175000Y-123945000D03*
X131606891Y-123351891D03*
X132200000Y-121920000D03*
D11*
X130175000Y-121920000D03*
%TD*%
D10*
%TO.C,H1*%
X131606891Y-54448109D03*
X130175000Y-53855000D03*
X128743109Y-54448109D03*
X128150000Y-55880000D03*
X128743109Y-57311891D03*
X130175000Y-57905000D03*
X131606891Y-57311891D03*
X132200000Y-55880000D03*
D11*
X130175000Y-55880000D03*
%TD*%
D12*
%TO.C,J3*%
X137160000Y-58420000D03*
X137160000Y-60960000D03*
X137160000Y-63500000D03*
X137160000Y-66040000D03*
X137160000Y-68580000D03*
X137160000Y-71120000D03*
X137160000Y-73660000D03*
X137160000Y-76200000D03*
X137160000Y-78740000D03*
X137160000Y-81280000D03*
X137160000Y-83820000D03*
X137160000Y-86360000D03*
X137160000Y-88900000D03*
X137160000Y-91440000D03*
X137160000Y-93980000D03*
X137160000Y-96520000D03*
X137160000Y-99060000D03*
X137160000Y-101600000D03*
X137160000Y-104140000D03*
X137160000Y-106680000D03*
X137160000Y-109220000D03*
X137160000Y-111760000D03*
X137160000Y-114300000D03*
X137160000Y-116840000D03*
X137160000Y-119380000D03*
X139700000Y-58420000D03*
X139700000Y-60960000D03*
X139700000Y-63500000D03*
X139700000Y-66040000D03*
X139700000Y-68580000D03*
X139700000Y-71120000D03*
X139700000Y-73660000D03*
X139700000Y-76200000D03*
X139700000Y-78740000D03*
X139700000Y-81280000D03*
X139700000Y-83820000D03*
X139700000Y-86360000D03*
X139700000Y-88900000D03*
X139700000Y-91440000D03*
X139700000Y-93980000D03*
X139700000Y-96520000D03*
X139700000Y-99060000D03*
X139700000Y-101600000D03*
X139700000Y-104140000D03*
X139700000Y-106680000D03*
X139700000Y-109220000D03*
X139700000Y-111760000D03*
X139700000Y-114300000D03*
X139700000Y-116840000D03*
G36*
G01*
X140550000Y-118780000D02*
X140550000Y-119980000D01*
G75*
G02*
X140300000Y-120230000I-250000J0D01*
G01*
X139100000Y-120230000D01*
G75*
G02*
X138850000Y-119980000I0J250000D01*
G01*
X138850000Y-118780000D01*
G75*
G02*
X139100000Y-118530000I250000J0D01*
G01*
X140300000Y-118530000D01*
G75*
G02*
X140550000Y-118780000I0J-250000D01*
G01*
G37*
%TD*%
D13*
%TO.C,J2*%
X111125000Y-64135000D03*
X113665000Y-64135000D03*
X111125000Y-66675000D03*
X113665000Y-66675000D03*
X111125000Y-69215000D03*
D14*
X113665000Y-69215000D03*
%TD*%
D13*
%TO.C,J1*%
X106680000Y-103505000D03*
X106680000Y-106045000D03*
X106680000Y-108585000D03*
X106680000Y-111125000D03*
X106680000Y-113665000D03*
D14*
X106680000Y-116205000D03*
%TD*%
M02*
