%TF.GenerationSoftware,KiCad,Pcbnew,5.1.8-db9833491~88~ubuntu18.04.1*%
%TF.CreationDate,2020-12-07T14:30:44+00:00*%
%TF.ProjectId,z80_monitor,7a38305f-6d6f-46e6-9974-6f722e6b6963,1*%
%TF.SameCoordinates,Original*%
%TF.FileFunction,Legend,Top*%
%TF.FilePolarity,Positive*%
%FSLAX46Y46*%
G04 Gerber Fmt 4.6, Leading zero omitted, Abs format (unit mm)*
G04 Created by KiCad (PCBNEW 5.1.8-db9833491~88~ubuntu18.04.1) date 2020-12-07 14:30:44*
%MOMM*%
%LPD*%
G01*
G04 APERTURE LIST*
%ADD10C,0.300000*%
%ADD11C,0.250000*%
%ADD12C,0.120000*%
%ADD13C,0.150000*%
%ADD14C,0.800000*%
%ADD15C,5.400000*%
%ADD16R,1.500000X0.550000*%
%ADD17R,0.550000X1.500000*%
%ADD18C,1.700000*%
%ADD19O,1.700000X1.700000*%
%ADD20R,1.700000X1.700000*%
%ADD21R,3.325000X2.400000*%
G04 APERTURE END LIST*
D10*
X117268571Y-69893571D02*
X116411428Y-69893571D01*
X116840000Y-69893571D02*
X116840000Y-68393571D01*
X116697142Y-68607857D01*
X116554285Y-68750714D01*
X116411428Y-68822142D01*
X104568571Y-116883571D02*
X103711428Y-116883571D01*
X104140000Y-116883571D02*
X104140000Y-115383571D01*
X103997142Y-115597857D01*
X103854285Y-115740714D01*
X103711428Y-115812142D01*
D11*
X109863095Y-53697142D02*
X109815476Y-53744761D01*
X109672619Y-53792380D01*
X109577380Y-53792380D01*
X109434523Y-53744761D01*
X109339285Y-53649523D01*
X109291666Y-53554285D01*
X109244047Y-53363809D01*
X109244047Y-53220952D01*
X109291666Y-53030476D01*
X109339285Y-52935238D01*
X109434523Y-52840000D01*
X109577380Y-52792380D01*
X109672619Y-52792380D01*
X109815476Y-52840000D01*
X109863095Y-52887619D01*
X110482142Y-52792380D02*
X110672619Y-52792380D01*
X110767857Y-52840000D01*
X110863095Y-52935238D01*
X110910714Y-53125714D01*
X110910714Y-53459047D01*
X110863095Y-53649523D01*
X110767857Y-53744761D01*
X110672619Y-53792380D01*
X110482142Y-53792380D01*
X110386904Y-53744761D01*
X110291666Y-53649523D01*
X110244047Y-53459047D01*
X110244047Y-53125714D01*
X110291666Y-52935238D01*
X110386904Y-52840000D01*
X110482142Y-52792380D01*
X111339285Y-53792380D02*
X111339285Y-52792380D01*
X111672619Y-53506666D01*
X112005952Y-52792380D01*
X112005952Y-53792380D01*
X112434523Y-53744761D02*
X112577380Y-53792380D01*
X112815476Y-53792380D01*
X112910714Y-53744761D01*
X112958333Y-53697142D01*
X113005952Y-53601904D01*
X113005952Y-53506666D01*
X112958333Y-53411428D01*
X112910714Y-53363809D01*
X112815476Y-53316190D01*
X112625000Y-53268571D01*
X112529761Y-53220952D01*
X112482142Y-53173333D01*
X112434523Y-53078095D01*
X112434523Y-52982857D01*
X112482142Y-52887619D01*
X112529761Y-52840000D01*
X112625000Y-52792380D01*
X112863095Y-52792380D01*
X113005952Y-52840000D01*
X104711666Y-53792380D02*
X104711666Y-52792380D01*
X105092619Y-52792380D01*
X105187857Y-52840000D01*
X105235476Y-52887619D01*
X105283095Y-52982857D01*
X105283095Y-53125714D01*
X105235476Y-53220952D01*
X105187857Y-53268571D01*
X105092619Y-53316190D01*
X104711666Y-53316190D01*
X105616428Y-52792380D02*
X105854523Y-53792380D01*
X106045000Y-53078095D01*
X106235476Y-53792380D01*
X106473571Y-52792380D01*
X107425952Y-53792380D02*
X107092619Y-53316190D01*
X106854523Y-53792380D02*
X106854523Y-52792380D01*
X107235476Y-52792380D01*
X107330714Y-52840000D01*
X107378333Y-52887619D01*
X107425952Y-52982857D01*
X107425952Y-53125714D01*
X107378333Y-53220952D01*
X107330714Y-53268571D01*
X107235476Y-53316190D01*
X106854523Y-53316190D01*
X115538333Y-53792380D02*
X115205000Y-53316190D01*
X114966904Y-53792380D02*
X114966904Y-52792380D01*
X115347857Y-52792380D01*
X115443095Y-52840000D01*
X115490714Y-52887619D01*
X115538333Y-52982857D01*
X115538333Y-53125714D01*
X115490714Y-53220952D01*
X115443095Y-53268571D01*
X115347857Y-53316190D01*
X114966904Y-53316190D01*
X115966904Y-53268571D02*
X116300238Y-53268571D01*
X116443095Y-53792380D02*
X115966904Y-53792380D01*
X115966904Y-52792380D01*
X116443095Y-52792380D01*
X117538333Y-53887619D02*
X117443095Y-53840000D01*
X117347857Y-53744761D01*
X117205000Y-53601904D01*
X117109761Y-53554285D01*
X117014523Y-53554285D01*
X117062142Y-53792380D02*
X116966904Y-53744761D01*
X116871666Y-53649523D01*
X116824047Y-53459047D01*
X116824047Y-53125714D01*
X116871666Y-52935238D01*
X116966904Y-52840000D01*
X117062142Y-52792380D01*
X117252619Y-52792380D01*
X117347857Y-52840000D01*
X117443095Y-52935238D01*
X117490714Y-53125714D01*
X117490714Y-53459047D01*
X117443095Y-53649523D01*
X117347857Y-53744761D01*
X117252619Y-53792380D01*
X117062142Y-53792380D01*
X120046904Y-53506666D02*
X120523095Y-53506666D01*
X119951666Y-53792380D02*
X120285000Y-52792380D01*
X120618333Y-53792380D01*
X121523095Y-53697142D02*
X121475476Y-53744761D01*
X121332619Y-53792380D01*
X121237380Y-53792380D01*
X121094523Y-53744761D01*
X120999285Y-53649523D01*
X120951666Y-53554285D01*
X120904047Y-53363809D01*
X120904047Y-53220952D01*
X120951666Y-53030476D01*
X120999285Y-52935238D01*
X121094523Y-52840000D01*
X121237380Y-52792380D01*
X121332619Y-52792380D01*
X121475476Y-52840000D01*
X121523095Y-52887619D01*
X121951666Y-53792380D02*
X121951666Y-52792380D01*
X122523095Y-53792380D02*
X122094523Y-53220952D01*
X122523095Y-52792380D02*
X121951666Y-53363809D01*
X124230000Y-53792380D02*
X124230000Y-52792380D01*
X124230000Y-53268571D02*
X124801428Y-53268571D01*
X124801428Y-53792380D02*
X124801428Y-52792380D01*
X125230000Y-53506666D02*
X125706190Y-53506666D01*
X125134761Y-53792380D02*
X125468095Y-52792380D01*
X125801428Y-53792380D01*
X126610952Y-53792380D02*
X126134761Y-53792380D01*
X126134761Y-52792380D01*
X126801428Y-52792380D02*
X127372857Y-52792380D01*
X127087142Y-53792380D02*
X127087142Y-52792380D01*
D12*
%TO.C,C2*%
X118573733Y-117985000D02*
X118916267Y-117985000D01*
X118573733Y-116965000D02*
X118916267Y-116965000D01*
%TO.C,D5*%
X122020000Y-56680000D02*
X122020000Y-54220000D01*
X122020000Y-54220000D02*
X120550000Y-54220000D01*
X120550000Y-54220000D02*
X120550000Y-56680000D01*
D13*
%TO.C,U2*%
X110935000Y-82300000D02*
X109660000Y-82300000D01*
X125285000Y-81725000D02*
X124610000Y-81725000D01*
X125285000Y-96075000D02*
X124610000Y-96075000D01*
X110935000Y-96075000D02*
X111610000Y-96075000D01*
X110935000Y-81725000D02*
X111610000Y-81725000D01*
X110935000Y-96075000D02*
X110935000Y-95400000D01*
X125285000Y-96075000D02*
X125285000Y-95400000D01*
X125285000Y-81725000D02*
X125285000Y-82400000D01*
X110935000Y-81725000D02*
X110935000Y-82300000D01*
D12*
%TO.C,C5*%
X122680000Y-113201267D02*
X122680000Y-112858733D01*
X123700000Y-113201267D02*
X123700000Y-112858733D01*
%TO.C,C8*%
X114763733Y-99185000D02*
X115106267Y-99185000D01*
X114763733Y-100205000D02*
X115106267Y-100205000D01*
%TO.C,C1*%
X112520000Y-113201267D02*
X112520000Y-112858733D01*
X113540000Y-113201267D02*
X113540000Y-112858733D01*
%TO.C,J3*%
X142990000Y-124590000D02*
X133870000Y-124590000D01*
X133870000Y-124590000D02*
X133870000Y-53210000D01*
X133870000Y-53210000D02*
X142990000Y-53210000D01*
X142990000Y-53210000D02*
X142990000Y-124590000D01*
X142990000Y-90950000D02*
X141680000Y-90950000D01*
X141680000Y-90950000D02*
X141680000Y-123290000D01*
X141680000Y-123290000D02*
X135180000Y-123290000D01*
X135180000Y-123290000D02*
X135180000Y-54510000D01*
X135180000Y-54510000D02*
X141680000Y-54510000D01*
X141680000Y-54510000D02*
X141680000Y-86850000D01*
X141680000Y-86850000D02*
X141680000Y-86850000D01*
X141680000Y-86850000D02*
X142990000Y-86850000D01*
X143380000Y-119380000D02*
X144380000Y-119880000D01*
X144380000Y-119880000D02*
X144380000Y-118880000D01*
X144380000Y-118880000D02*
X143380000Y-119380000D01*
%TO.C,R2*%
X116965000Y-64941267D02*
X116965000Y-64598733D01*
X117985000Y-64941267D02*
X117985000Y-64598733D01*
%TO.C,J2*%
X114995000Y-62805000D02*
X109795000Y-62805000D01*
X114995000Y-67945000D02*
X114995000Y-62805000D01*
X109795000Y-70545000D02*
X109795000Y-62805000D01*
X114995000Y-67945000D02*
X112395000Y-67945000D01*
X112395000Y-67945000D02*
X112395000Y-70545000D01*
X112395000Y-70545000D02*
X109795000Y-70545000D01*
X114995000Y-69215000D02*
X114995000Y-70545000D01*
X114995000Y-70545000D02*
X113665000Y-70545000D01*
%TO.C,C9*%
X129265000Y-77437064D02*
X129265000Y-76232936D01*
X131085000Y-77437064D02*
X131085000Y-76232936D01*
%TO.C,C7*%
X112223733Y-78230000D02*
X112566267Y-78230000D01*
X112223733Y-79250000D02*
X112566267Y-79250000D01*
%TO.C,C6*%
X122091267Y-79250000D02*
X121748733Y-79250000D01*
X122091267Y-78230000D02*
X121748733Y-78230000D01*
%TO.C,C4*%
X115398733Y-106170000D02*
X115741267Y-106170000D01*
X115398733Y-107190000D02*
X115741267Y-107190000D01*
%TO.C,C3*%
X120821267Y-107190000D02*
X120478733Y-107190000D01*
X120821267Y-106170000D02*
X120478733Y-106170000D01*
%TO.C,R7*%
X125220000Y-59861267D02*
X125220000Y-59518733D01*
X126240000Y-59861267D02*
X126240000Y-59518733D01*
%TO.C,R6*%
X120775000Y-59861267D02*
X120775000Y-59518733D01*
X121795000Y-59861267D02*
X121795000Y-59518733D01*
%TO.C,R5*%
X115695000Y-59861267D02*
X115695000Y-59518733D01*
X116715000Y-59861267D02*
X116715000Y-59518733D01*
%TO.C,R4*%
X105535000Y-59861267D02*
X105535000Y-59518733D01*
X106555000Y-59861267D02*
X106555000Y-59518733D01*
%TO.C,R3*%
X111635000Y-59518733D02*
X111635000Y-59861267D01*
X110615000Y-59518733D02*
X110615000Y-59861267D01*
%TO.C,R1*%
X114471267Y-117985000D02*
X114128733Y-117985000D01*
X114471267Y-116965000D02*
X114128733Y-116965000D01*
%TO.C,J1*%
X108010000Y-102175000D02*
X105350000Y-102175000D01*
X108010000Y-114935000D02*
X108010000Y-102175000D01*
X105350000Y-114935000D02*
X105350000Y-102175000D01*
X108010000Y-114935000D02*
X105350000Y-114935000D01*
X108010000Y-116205000D02*
X108010000Y-117535000D01*
X108010000Y-117535000D02*
X106680000Y-117535000D01*
%TO.C,D6*%
X126465000Y-56680000D02*
X126465000Y-54220000D01*
X126465000Y-54220000D02*
X124995000Y-54220000D01*
X124995000Y-54220000D02*
X124995000Y-56680000D01*
%TO.C,D4*%
X116940000Y-56680000D02*
X116940000Y-54220000D01*
X116940000Y-54220000D02*
X115470000Y-54220000D01*
X115470000Y-54220000D02*
X115470000Y-56680000D01*
%TO.C,D3*%
X106780000Y-56680000D02*
X106780000Y-54220000D01*
X106780000Y-54220000D02*
X105310000Y-54220000D01*
X105310000Y-54220000D02*
X105310000Y-56680000D01*
%TO.C,D2*%
X111860000Y-56680000D02*
X111860000Y-54220000D01*
X111860000Y-54220000D02*
X110390000Y-54220000D01*
X110390000Y-54220000D02*
X110390000Y-56680000D01*
%TO.C,D1*%
X110390000Y-116040000D02*
X110390000Y-118500000D01*
X110390000Y-118500000D02*
X111860000Y-118500000D01*
X111860000Y-118500000D02*
X111860000Y-116040000D01*
%TO.C,Y1*%
X120810000Y-101070000D02*
X113485000Y-101070000D01*
X113485000Y-101070000D02*
X113485000Y-104670000D01*
X113485000Y-104670000D02*
X120810000Y-104670000D01*
%TO.C,U1*%
X118110000Y-115590000D02*
X120060000Y-115590000D01*
X118110000Y-115590000D02*
X116160000Y-115590000D01*
X118110000Y-110470000D02*
X120060000Y-110470000D01*
X118110000Y-110470000D02*
X114660000Y-110470000D01*
%TD*%
%LPC*%
D14*
%TO.C,H2*%
X131606891Y-120488109D03*
X130175000Y-119895000D03*
X128743109Y-120488109D03*
X128150000Y-121920000D03*
X128743109Y-123351891D03*
X130175000Y-123945000D03*
X131606891Y-123351891D03*
X132200000Y-121920000D03*
D15*
X130175000Y-121920000D03*
%TD*%
D14*
%TO.C,H1*%
X131606891Y-54448109D03*
X130175000Y-53855000D03*
X128743109Y-54448109D03*
X128150000Y-55880000D03*
X128743109Y-57311891D03*
X130175000Y-57905000D03*
X131606891Y-57311891D03*
X132200000Y-55880000D03*
D15*
X130175000Y-55880000D03*
%TD*%
%TO.C,C2*%
G36*
G01*
X119095000Y-117712500D02*
X119095000Y-117237500D01*
G75*
G02*
X119332500Y-117000000I237500J0D01*
G01*
X119907500Y-117000000D01*
G75*
G02*
X120145000Y-117237500I0J-237500D01*
G01*
X120145000Y-117712500D01*
G75*
G02*
X119907500Y-117950000I-237500J0D01*
G01*
X119332500Y-117950000D01*
G75*
G02*
X119095000Y-117712500I0J237500D01*
G01*
G37*
G36*
G01*
X117345000Y-117712500D02*
X117345000Y-117237500D01*
G75*
G02*
X117582500Y-117000000I237500J0D01*
G01*
X118157500Y-117000000D01*
G75*
G02*
X118395000Y-117237500I0J-237500D01*
G01*
X118395000Y-117712500D01*
G75*
G02*
X118157500Y-117950000I-237500J0D01*
G01*
X117582500Y-117950000D01*
G75*
G02*
X117345000Y-117712500I0J237500D01*
G01*
G37*
%TD*%
%TO.C,D5*%
G36*
G01*
X121047500Y-56230000D02*
X121522500Y-56230000D01*
G75*
G02*
X121760000Y-56467500I0J-237500D01*
G01*
X121760000Y-57042500D01*
G75*
G02*
X121522500Y-57280000I-237500J0D01*
G01*
X121047500Y-57280000D01*
G75*
G02*
X120810000Y-57042500I0J237500D01*
G01*
X120810000Y-56467500D01*
G75*
G02*
X121047500Y-56230000I237500J0D01*
G01*
G37*
G36*
G01*
X121047500Y-54480000D02*
X121522500Y-54480000D01*
G75*
G02*
X121760000Y-54717500I0J-237500D01*
G01*
X121760000Y-55292500D01*
G75*
G02*
X121522500Y-55530000I-237500J0D01*
G01*
X121047500Y-55530000D01*
G75*
G02*
X120810000Y-55292500I0J237500D01*
G01*
X120810000Y-54717500D01*
G75*
G02*
X121047500Y-54480000I237500J0D01*
G01*
G37*
%TD*%
D16*
%TO.C,U2*%
X110410000Y-82900000D03*
X110410000Y-83700000D03*
X110410000Y-84500000D03*
X110410000Y-85300000D03*
X110410000Y-86100000D03*
X110410000Y-86900000D03*
X110410000Y-87700000D03*
X110410000Y-88500000D03*
X110410000Y-89300000D03*
X110410000Y-90100000D03*
X110410000Y-90900000D03*
X110410000Y-91700000D03*
X110410000Y-92500000D03*
X110410000Y-93300000D03*
X110410000Y-94100000D03*
X110410000Y-94900000D03*
D17*
X112110000Y-96600000D03*
X112910000Y-96600000D03*
X113710000Y-96600000D03*
X114510000Y-96600000D03*
X115310000Y-96600000D03*
X116110000Y-96600000D03*
X116910000Y-96600000D03*
X117710000Y-96600000D03*
X118510000Y-96600000D03*
X119310000Y-96600000D03*
X120110000Y-96600000D03*
X120910000Y-96600000D03*
X121710000Y-96600000D03*
X122510000Y-96600000D03*
X123310000Y-96600000D03*
X124110000Y-96600000D03*
D16*
X125810000Y-94900000D03*
X125810000Y-94100000D03*
X125810000Y-93300000D03*
X125810000Y-92500000D03*
X125810000Y-91700000D03*
X125810000Y-90900000D03*
X125810000Y-90100000D03*
X125810000Y-89300000D03*
X125810000Y-88500000D03*
X125810000Y-87700000D03*
X125810000Y-86900000D03*
X125810000Y-86100000D03*
X125810000Y-85300000D03*
X125810000Y-84500000D03*
X125810000Y-83700000D03*
X125810000Y-82900000D03*
D17*
X124110000Y-81200000D03*
X123310000Y-81200000D03*
X122510000Y-81200000D03*
X121710000Y-81200000D03*
X120910000Y-81200000D03*
X120110000Y-81200000D03*
X119310000Y-81200000D03*
X118510000Y-81200000D03*
X117710000Y-81200000D03*
X116910000Y-81200000D03*
X116110000Y-81200000D03*
X115310000Y-81200000D03*
X114510000Y-81200000D03*
X113710000Y-81200000D03*
X112910000Y-81200000D03*
X112110000Y-81200000D03*
%TD*%
%TO.C,C5*%
G36*
G01*
X123427500Y-112680000D02*
X122952500Y-112680000D01*
G75*
G02*
X122715000Y-112442500I0J237500D01*
G01*
X122715000Y-111867500D01*
G75*
G02*
X122952500Y-111630000I237500J0D01*
G01*
X123427500Y-111630000D01*
G75*
G02*
X123665000Y-111867500I0J-237500D01*
G01*
X123665000Y-112442500D01*
G75*
G02*
X123427500Y-112680000I-237500J0D01*
G01*
G37*
G36*
G01*
X123427500Y-114430000D02*
X122952500Y-114430000D01*
G75*
G02*
X122715000Y-114192500I0J237500D01*
G01*
X122715000Y-113617500D01*
G75*
G02*
X122952500Y-113380000I237500J0D01*
G01*
X123427500Y-113380000D01*
G75*
G02*
X123665000Y-113617500I0J-237500D01*
G01*
X123665000Y-114192500D01*
G75*
G02*
X123427500Y-114430000I-237500J0D01*
G01*
G37*
%TD*%
%TO.C,C8*%
G36*
G01*
X115285000Y-99932500D02*
X115285000Y-99457500D01*
G75*
G02*
X115522500Y-99220000I237500J0D01*
G01*
X116097500Y-99220000D01*
G75*
G02*
X116335000Y-99457500I0J-237500D01*
G01*
X116335000Y-99932500D01*
G75*
G02*
X116097500Y-100170000I-237500J0D01*
G01*
X115522500Y-100170000D01*
G75*
G02*
X115285000Y-99932500I0J237500D01*
G01*
G37*
G36*
G01*
X113535000Y-99932500D02*
X113535000Y-99457500D01*
G75*
G02*
X113772500Y-99220000I237500J0D01*
G01*
X114347500Y-99220000D01*
G75*
G02*
X114585000Y-99457500I0J-237500D01*
G01*
X114585000Y-99932500D01*
G75*
G02*
X114347500Y-100170000I-237500J0D01*
G01*
X113772500Y-100170000D01*
G75*
G02*
X113535000Y-99932500I0J237500D01*
G01*
G37*
%TD*%
%TO.C,C1*%
G36*
G01*
X113267500Y-112680000D02*
X112792500Y-112680000D01*
G75*
G02*
X112555000Y-112442500I0J237500D01*
G01*
X112555000Y-111867500D01*
G75*
G02*
X112792500Y-111630000I237500J0D01*
G01*
X113267500Y-111630000D01*
G75*
G02*
X113505000Y-111867500I0J-237500D01*
G01*
X113505000Y-112442500D01*
G75*
G02*
X113267500Y-112680000I-237500J0D01*
G01*
G37*
G36*
G01*
X113267500Y-114430000D02*
X112792500Y-114430000D01*
G75*
G02*
X112555000Y-114192500I0J237500D01*
G01*
X112555000Y-113617500D01*
G75*
G02*
X112792500Y-113380000I237500J0D01*
G01*
X113267500Y-113380000D01*
G75*
G02*
X113505000Y-113617500I0J-237500D01*
G01*
X113505000Y-114192500D01*
G75*
G02*
X113267500Y-114430000I-237500J0D01*
G01*
G37*
%TD*%
D18*
%TO.C,J3*%
X137160000Y-58420000D03*
X137160000Y-60960000D03*
X137160000Y-63500000D03*
X137160000Y-66040000D03*
X137160000Y-68580000D03*
X137160000Y-71120000D03*
X137160000Y-73660000D03*
X137160000Y-76200000D03*
X137160000Y-78740000D03*
X137160000Y-81280000D03*
X137160000Y-83820000D03*
X137160000Y-86360000D03*
X137160000Y-88900000D03*
X137160000Y-91440000D03*
X137160000Y-93980000D03*
X137160000Y-96520000D03*
X137160000Y-99060000D03*
X137160000Y-101600000D03*
X137160000Y-104140000D03*
X137160000Y-106680000D03*
X137160000Y-109220000D03*
X137160000Y-111760000D03*
X137160000Y-114300000D03*
X137160000Y-116840000D03*
X137160000Y-119380000D03*
X139700000Y-58420000D03*
X139700000Y-60960000D03*
X139700000Y-63500000D03*
X139700000Y-66040000D03*
X139700000Y-68580000D03*
X139700000Y-71120000D03*
X139700000Y-73660000D03*
X139700000Y-76200000D03*
X139700000Y-78740000D03*
X139700000Y-81280000D03*
X139700000Y-83820000D03*
X139700000Y-86360000D03*
X139700000Y-88900000D03*
X139700000Y-91440000D03*
X139700000Y-93980000D03*
X139700000Y-96520000D03*
X139700000Y-99060000D03*
X139700000Y-101600000D03*
X139700000Y-104140000D03*
X139700000Y-106680000D03*
X139700000Y-109220000D03*
X139700000Y-111760000D03*
X139700000Y-114300000D03*
X139700000Y-116840000D03*
G36*
G01*
X140550000Y-118780000D02*
X140550000Y-119980000D01*
G75*
G02*
X140300000Y-120230000I-250000J0D01*
G01*
X139100000Y-120230000D01*
G75*
G02*
X138850000Y-119980000I0J250000D01*
G01*
X138850000Y-118780000D01*
G75*
G02*
X139100000Y-118530000I250000J0D01*
G01*
X140300000Y-118530000D01*
G75*
G02*
X140550000Y-118780000I0J-250000D01*
G01*
G37*
%TD*%
%TO.C,R2*%
G36*
G01*
X117712500Y-64420000D02*
X117237500Y-64420000D01*
G75*
G02*
X117000000Y-64182500I0J237500D01*
G01*
X117000000Y-63607500D01*
G75*
G02*
X117237500Y-63370000I237500J0D01*
G01*
X117712500Y-63370000D01*
G75*
G02*
X117950000Y-63607500I0J-237500D01*
G01*
X117950000Y-64182500D01*
G75*
G02*
X117712500Y-64420000I-237500J0D01*
G01*
G37*
G36*
G01*
X117712500Y-66170000D02*
X117237500Y-66170000D01*
G75*
G02*
X117000000Y-65932500I0J237500D01*
G01*
X117000000Y-65357500D01*
G75*
G02*
X117237500Y-65120000I237500J0D01*
G01*
X117712500Y-65120000D01*
G75*
G02*
X117950000Y-65357500I0J-237500D01*
G01*
X117950000Y-65932500D01*
G75*
G02*
X117712500Y-66170000I-237500J0D01*
G01*
G37*
%TD*%
D19*
%TO.C,J2*%
X111125000Y-64135000D03*
X113665000Y-64135000D03*
X111125000Y-66675000D03*
X113665000Y-66675000D03*
X111125000Y-69215000D03*
D20*
X113665000Y-69215000D03*
%TD*%
%TO.C,C9*%
G36*
G01*
X130800000Y-76060000D02*
X129550000Y-76060000D01*
G75*
G02*
X129300000Y-75810000I0J250000D01*
G01*
X129300000Y-74885000D01*
G75*
G02*
X129550000Y-74635000I250000J0D01*
G01*
X130800000Y-74635000D01*
G75*
G02*
X131050000Y-74885000I0J-250000D01*
G01*
X131050000Y-75810000D01*
G75*
G02*
X130800000Y-76060000I-250000J0D01*
G01*
G37*
G36*
G01*
X130800000Y-79035000D02*
X129550000Y-79035000D01*
G75*
G02*
X129300000Y-78785000I0J250000D01*
G01*
X129300000Y-77860000D01*
G75*
G02*
X129550000Y-77610000I250000J0D01*
G01*
X130800000Y-77610000D01*
G75*
G02*
X131050000Y-77860000I0J-250000D01*
G01*
X131050000Y-78785000D01*
G75*
G02*
X130800000Y-79035000I-250000J0D01*
G01*
G37*
%TD*%
%TO.C,C7*%
G36*
G01*
X112745000Y-78977500D02*
X112745000Y-78502500D01*
G75*
G02*
X112982500Y-78265000I237500J0D01*
G01*
X113557500Y-78265000D01*
G75*
G02*
X113795000Y-78502500I0J-237500D01*
G01*
X113795000Y-78977500D01*
G75*
G02*
X113557500Y-79215000I-237500J0D01*
G01*
X112982500Y-79215000D01*
G75*
G02*
X112745000Y-78977500I0J237500D01*
G01*
G37*
G36*
G01*
X110995000Y-78977500D02*
X110995000Y-78502500D01*
G75*
G02*
X111232500Y-78265000I237500J0D01*
G01*
X111807500Y-78265000D01*
G75*
G02*
X112045000Y-78502500I0J-237500D01*
G01*
X112045000Y-78977500D01*
G75*
G02*
X111807500Y-79215000I-237500J0D01*
G01*
X111232500Y-79215000D01*
G75*
G02*
X110995000Y-78977500I0J237500D01*
G01*
G37*
%TD*%
%TO.C,C6*%
G36*
G01*
X121570000Y-78502500D02*
X121570000Y-78977500D01*
G75*
G02*
X121332500Y-79215000I-237500J0D01*
G01*
X120757500Y-79215000D01*
G75*
G02*
X120520000Y-78977500I0J237500D01*
G01*
X120520000Y-78502500D01*
G75*
G02*
X120757500Y-78265000I237500J0D01*
G01*
X121332500Y-78265000D01*
G75*
G02*
X121570000Y-78502500I0J-237500D01*
G01*
G37*
G36*
G01*
X123320000Y-78502500D02*
X123320000Y-78977500D01*
G75*
G02*
X123082500Y-79215000I-237500J0D01*
G01*
X122507500Y-79215000D01*
G75*
G02*
X122270000Y-78977500I0J237500D01*
G01*
X122270000Y-78502500D01*
G75*
G02*
X122507500Y-78265000I237500J0D01*
G01*
X123082500Y-78265000D01*
G75*
G02*
X123320000Y-78502500I0J-237500D01*
G01*
G37*
%TD*%
%TO.C,C4*%
G36*
G01*
X115920000Y-106917500D02*
X115920000Y-106442500D01*
G75*
G02*
X116157500Y-106205000I237500J0D01*
G01*
X116732500Y-106205000D01*
G75*
G02*
X116970000Y-106442500I0J-237500D01*
G01*
X116970000Y-106917500D01*
G75*
G02*
X116732500Y-107155000I-237500J0D01*
G01*
X116157500Y-107155000D01*
G75*
G02*
X115920000Y-106917500I0J237500D01*
G01*
G37*
G36*
G01*
X114170000Y-106917500D02*
X114170000Y-106442500D01*
G75*
G02*
X114407500Y-106205000I237500J0D01*
G01*
X114982500Y-106205000D01*
G75*
G02*
X115220000Y-106442500I0J-237500D01*
G01*
X115220000Y-106917500D01*
G75*
G02*
X114982500Y-107155000I-237500J0D01*
G01*
X114407500Y-107155000D01*
G75*
G02*
X114170000Y-106917500I0J237500D01*
G01*
G37*
%TD*%
%TO.C,C3*%
G36*
G01*
X120300000Y-106442500D02*
X120300000Y-106917500D01*
G75*
G02*
X120062500Y-107155000I-237500J0D01*
G01*
X119487500Y-107155000D01*
G75*
G02*
X119250000Y-106917500I0J237500D01*
G01*
X119250000Y-106442500D01*
G75*
G02*
X119487500Y-106205000I237500J0D01*
G01*
X120062500Y-106205000D01*
G75*
G02*
X120300000Y-106442500I0J-237500D01*
G01*
G37*
G36*
G01*
X122050000Y-106442500D02*
X122050000Y-106917500D01*
G75*
G02*
X121812500Y-107155000I-237500J0D01*
G01*
X121237500Y-107155000D01*
G75*
G02*
X121000000Y-106917500I0J237500D01*
G01*
X121000000Y-106442500D01*
G75*
G02*
X121237500Y-106205000I237500J0D01*
G01*
X121812500Y-106205000D01*
G75*
G02*
X122050000Y-106442500I0J-237500D01*
G01*
G37*
%TD*%
%TO.C,R7*%
G36*
G01*
X125967500Y-59340000D02*
X125492500Y-59340000D01*
G75*
G02*
X125255000Y-59102500I0J237500D01*
G01*
X125255000Y-58527500D01*
G75*
G02*
X125492500Y-58290000I237500J0D01*
G01*
X125967500Y-58290000D01*
G75*
G02*
X126205000Y-58527500I0J-237500D01*
G01*
X126205000Y-59102500D01*
G75*
G02*
X125967500Y-59340000I-237500J0D01*
G01*
G37*
G36*
G01*
X125967500Y-61090000D02*
X125492500Y-61090000D01*
G75*
G02*
X125255000Y-60852500I0J237500D01*
G01*
X125255000Y-60277500D01*
G75*
G02*
X125492500Y-60040000I237500J0D01*
G01*
X125967500Y-60040000D01*
G75*
G02*
X126205000Y-60277500I0J-237500D01*
G01*
X126205000Y-60852500D01*
G75*
G02*
X125967500Y-61090000I-237500J0D01*
G01*
G37*
%TD*%
%TO.C,R6*%
G36*
G01*
X121522500Y-59340000D02*
X121047500Y-59340000D01*
G75*
G02*
X120810000Y-59102500I0J237500D01*
G01*
X120810000Y-58527500D01*
G75*
G02*
X121047500Y-58290000I237500J0D01*
G01*
X121522500Y-58290000D01*
G75*
G02*
X121760000Y-58527500I0J-237500D01*
G01*
X121760000Y-59102500D01*
G75*
G02*
X121522500Y-59340000I-237500J0D01*
G01*
G37*
G36*
G01*
X121522500Y-61090000D02*
X121047500Y-61090000D01*
G75*
G02*
X120810000Y-60852500I0J237500D01*
G01*
X120810000Y-60277500D01*
G75*
G02*
X121047500Y-60040000I237500J0D01*
G01*
X121522500Y-60040000D01*
G75*
G02*
X121760000Y-60277500I0J-237500D01*
G01*
X121760000Y-60852500D01*
G75*
G02*
X121522500Y-61090000I-237500J0D01*
G01*
G37*
%TD*%
%TO.C,R5*%
G36*
G01*
X116442500Y-59340000D02*
X115967500Y-59340000D01*
G75*
G02*
X115730000Y-59102500I0J237500D01*
G01*
X115730000Y-58527500D01*
G75*
G02*
X115967500Y-58290000I237500J0D01*
G01*
X116442500Y-58290000D01*
G75*
G02*
X116680000Y-58527500I0J-237500D01*
G01*
X116680000Y-59102500D01*
G75*
G02*
X116442500Y-59340000I-237500J0D01*
G01*
G37*
G36*
G01*
X116442500Y-61090000D02*
X115967500Y-61090000D01*
G75*
G02*
X115730000Y-60852500I0J237500D01*
G01*
X115730000Y-60277500D01*
G75*
G02*
X115967500Y-60040000I237500J0D01*
G01*
X116442500Y-60040000D01*
G75*
G02*
X116680000Y-60277500I0J-237500D01*
G01*
X116680000Y-60852500D01*
G75*
G02*
X116442500Y-61090000I-237500J0D01*
G01*
G37*
%TD*%
%TO.C,R4*%
G36*
G01*
X106282500Y-59340000D02*
X105807500Y-59340000D01*
G75*
G02*
X105570000Y-59102500I0J237500D01*
G01*
X105570000Y-58527500D01*
G75*
G02*
X105807500Y-58290000I237500J0D01*
G01*
X106282500Y-58290000D01*
G75*
G02*
X106520000Y-58527500I0J-237500D01*
G01*
X106520000Y-59102500D01*
G75*
G02*
X106282500Y-59340000I-237500J0D01*
G01*
G37*
G36*
G01*
X106282500Y-61090000D02*
X105807500Y-61090000D01*
G75*
G02*
X105570000Y-60852500I0J237500D01*
G01*
X105570000Y-60277500D01*
G75*
G02*
X105807500Y-60040000I237500J0D01*
G01*
X106282500Y-60040000D01*
G75*
G02*
X106520000Y-60277500I0J-237500D01*
G01*
X106520000Y-60852500D01*
G75*
G02*
X106282500Y-61090000I-237500J0D01*
G01*
G37*
%TD*%
%TO.C,R3*%
G36*
G01*
X110887500Y-60040000D02*
X111362500Y-60040000D01*
G75*
G02*
X111600000Y-60277500I0J-237500D01*
G01*
X111600000Y-60852500D01*
G75*
G02*
X111362500Y-61090000I-237500J0D01*
G01*
X110887500Y-61090000D01*
G75*
G02*
X110650000Y-60852500I0J237500D01*
G01*
X110650000Y-60277500D01*
G75*
G02*
X110887500Y-60040000I237500J0D01*
G01*
G37*
G36*
G01*
X110887500Y-58290000D02*
X111362500Y-58290000D01*
G75*
G02*
X111600000Y-58527500I0J-237500D01*
G01*
X111600000Y-59102500D01*
G75*
G02*
X111362500Y-59340000I-237500J0D01*
G01*
X110887500Y-59340000D01*
G75*
G02*
X110650000Y-59102500I0J237500D01*
G01*
X110650000Y-58527500D01*
G75*
G02*
X110887500Y-58290000I237500J0D01*
G01*
G37*
%TD*%
%TO.C,R1*%
G36*
G01*
X113950000Y-117237500D02*
X113950000Y-117712500D01*
G75*
G02*
X113712500Y-117950000I-237500J0D01*
G01*
X113137500Y-117950000D01*
G75*
G02*
X112900000Y-117712500I0J237500D01*
G01*
X112900000Y-117237500D01*
G75*
G02*
X113137500Y-117000000I237500J0D01*
G01*
X113712500Y-117000000D01*
G75*
G02*
X113950000Y-117237500I0J-237500D01*
G01*
G37*
G36*
G01*
X115700000Y-117237500D02*
X115700000Y-117712500D01*
G75*
G02*
X115462500Y-117950000I-237500J0D01*
G01*
X114887500Y-117950000D01*
G75*
G02*
X114650000Y-117712500I0J237500D01*
G01*
X114650000Y-117237500D01*
G75*
G02*
X114887500Y-117000000I237500J0D01*
G01*
X115462500Y-117000000D01*
G75*
G02*
X115700000Y-117237500I0J-237500D01*
G01*
G37*
%TD*%
D19*
%TO.C,J1*%
X106680000Y-103505000D03*
X106680000Y-106045000D03*
X106680000Y-108585000D03*
X106680000Y-111125000D03*
X106680000Y-113665000D03*
D20*
X106680000Y-116205000D03*
%TD*%
%TO.C,D6*%
G36*
G01*
X125492500Y-56230000D02*
X125967500Y-56230000D01*
G75*
G02*
X126205000Y-56467500I0J-237500D01*
G01*
X126205000Y-57042500D01*
G75*
G02*
X125967500Y-57280000I-237500J0D01*
G01*
X125492500Y-57280000D01*
G75*
G02*
X125255000Y-57042500I0J237500D01*
G01*
X125255000Y-56467500D01*
G75*
G02*
X125492500Y-56230000I237500J0D01*
G01*
G37*
G36*
G01*
X125492500Y-54480000D02*
X125967500Y-54480000D01*
G75*
G02*
X126205000Y-54717500I0J-237500D01*
G01*
X126205000Y-55292500D01*
G75*
G02*
X125967500Y-55530000I-237500J0D01*
G01*
X125492500Y-55530000D01*
G75*
G02*
X125255000Y-55292500I0J237500D01*
G01*
X125255000Y-54717500D01*
G75*
G02*
X125492500Y-54480000I237500J0D01*
G01*
G37*
%TD*%
%TO.C,D4*%
G36*
G01*
X115967500Y-56230000D02*
X116442500Y-56230000D01*
G75*
G02*
X116680000Y-56467500I0J-237500D01*
G01*
X116680000Y-57042500D01*
G75*
G02*
X116442500Y-57280000I-237500J0D01*
G01*
X115967500Y-57280000D01*
G75*
G02*
X115730000Y-57042500I0J237500D01*
G01*
X115730000Y-56467500D01*
G75*
G02*
X115967500Y-56230000I237500J0D01*
G01*
G37*
G36*
G01*
X115967500Y-54480000D02*
X116442500Y-54480000D01*
G75*
G02*
X116680000Y-54717500I0J-237500D01*
G01*
X116680000Y-55292500D01*
G75*
G02*
X116442500Y-55530000I-237500J0D01*
G01*
X115967500Y-55530000D01*
G75*
G02*
X115730000Y-55292500I0J237500D01*
G01*
X115730000Y-54717500D01*
G75*
G02*
X115967500Y-54480000I237500J0D01*
G01*
G37*
%TD*%
%TO.C,D3*%
G36*
G01*
X105807500Y-56230000D02*
X106282500Y-56230000D01*
G75*
G02*
X106520000Y-56467500I0J-237500D01*
G01*
X106520000Y-57042500D01*
G75*
G02*
X106282500Y-57280000I-237500J0D01*
G01*
X105807500Y-57280000D01*
G75*
G02*
X105570000Y-57042500I0J237500D01*
G01*
X105570000Y-56467500D01*
G75*
G02*
X105807500Y-56230000I237500J0D01*
G01*
G37*
G36*
G01*
X105807500Y-54480000D02*
X106282500Y-54480000D01*
G75*
G02*
X106520000Y-54717500I0J-237500D01*
G01*
X106520000Y-55292500D01*
G75*
G02*
X106282500Y-55530000I-237500J0D01*
G01*
X105807500Y-55530000D01*
G75*
G02*
X105570000Y-55292500I0J237500D01*
G01*
X105570000Y-54717500D01*
G75*
G02*
X105807500Y-54480000I237500J0D01*
G01*
G37*
%TD*%
%TO.C,D2*%
G36*
G01*
X110887500Y-56230000D02*
X111362500Y-56230000D01*
G75*
G02*
X111600000Y-56467500I0J-237500D01*
G01*
X111600000Y-57042500D01*
G75*
G02*
X111362500Y-57280000I-237500J0D01*
G01*
X110887500Y-57280000D01*
G75*
G02*
X110650000Y-57042500I0J237500D01*
G01*
X110650000Y-56467500D01*
G75*
G02*
X110887500Y-56230000I237500J0D01*
G01*
G37*
G36*
G01*
X110887500Y-54480000D02*
X111362500Y-54480000D01*
G75*
G02*
X111600000Y-54717500I0J-237500D01*
G01*
X111600000Y-55292500D01*
G75*
G02*
X111362500Y-55530000I-237500J0D01*
G01*
X110887500Y-55530000D01*
G75*
G02*
X110650000Y-55292500I0J237500D01*
G01*
X110650000Y-54717500D01*
G75*
G02*
X110887500Y-54480000I237500J0D01*
G01*
G37*
%TD*%
%TO.C,D1*%
G36*
G01*
X111362500Y-116490000D02*
X110887500Y-116490000D01*
G75*
G02*
X110650000Y-116252500I0J237500D01*
G01*
X110650000Y-115677500D01*
G75*
G02*
X110887500Y-115440000I237500J0D01*
G01*
X111362500Y-115440000D01*
G75*
G02*
X111600000Y-115677500I0J-237500D01*
G01*
X111600000Y-116252500D01*
G75*
G02*
X111362500Y-116490000I-237500J0D01*
G01*
G37*
G36*
G01*
X111362500Y-118240000D02*
X110887500Y-118240000D01*
G75*
G02*
X110650000Y-118002500I0J237500D01*
G01*
X110650000Y-117427500D01*
G75*
G02*
X110887500Y-117190000I237500J0D01*
G01*
X111362500Y-117190000D01*
G75*
G02*
X111600000Y-117427500I0J-237500D01*
G01*
X111600000Y-118002500D01*
G75*
G02*
X111362500Y-118240000I-237500J0D01*
G01*
G37*
%TD*%
D21*
%TO.C,Y1*%
X120872500Y-102870000D03*
X115347500Y-102870000D03*
%TD*%
%TO.C,U1*%
G36*
G01*
X119610000Y-111275000D02*
X119610000Y-110975000D01*
G75*
G02*
X119760000Y-110825000I150000J0D01*
G01*
X121410000Y-110825000D01*
G75*
G02*
X121560000Y-110975000I0J-150000D01*
G01*
X121560000Y-111275000D01*
G75*
G02*
X121410000Y-111425000I-150000J0D01*
G01*
X119760000Y-111425000D01*
G75*
G02*
X119610000Y-111275000I0J150000D01*
G01*
G37*
G36*
G01*
X119610000Y-112545000D02*
X119610000Y-112245000D01*
G75*
G02*
X119760000Y-112095000I150000J0D01*
G01*
X121410000Y-112095000D01*
G75*
G02*
X121560000Y-112245000I0J-150000D01*
G01*
X121560000Y-112545000D01*
G75*
G02*
X121410000Y-112695000I-150000J0D01*
G01*
X119760000Y-112695000D01*
G75*
G02*
X119610000Y-112545000I0J150000D01*
G01*
G37*
G36*
G01*
X119610000Y-113815000D02*
X119610000Y-113515000D01*
G75*
G02*
X119760000Y-113365000I150000J0D01*
G01*
X121410000Y-113365000D01*
G75*
G02*
X121560000Y-113515000I0J-150000D01*
G01*
X121560000Y-113815000D01*
G75*
G02*
X121410000Y-113965000I-150000J0D01*
G01*
X119760000Y-113965000D01*
G75*
G02*
X119610000Y-113815000I0J150000D01*
G01*
G37*
G36*
G01*
X119610000Y-115085000D02*
X119610000Y-114785000D01*
G75*
G02*
X119760000Y-114635000I150000J0D01*
G01*
X121410000Y-114635000D01*
G75*
G02*
X121560000Y-114785000I0J-150000D01*
G01*
X121560000Y-115085000D01*
G75*
G02*
X121410000Y-115235000I-150000J0D01*
G01*
X119760000Y-115235000D01*
G75*
G02*
X119610000Y-115085000I0J150000D01*
G01*
G37*
G36*
G01*
X114660000Y-115085000D02*
X114660000Y-114785000D01*
G75*
G02*
X114810000Y-114635000I150000J0D01*
G01*
X116460000Y-114635000D01*
G75*
G02*
X116610000Y-114785000I0J-150000D01*
G01*
X116610000Y-115085000D01*
G75*
G02*
X116460000Y-115235000I-150000J0D01*
G01*
X114810000Y-115235000D01*
G75*
G02*
X114660000Y-115085000I0J150000D01*
G01*
G37*
G36*
G01*
X114660000Y-113815000D02*
X114660000Y-113515000D01*
G75*
G02*
X114810000Y-113365000I150000J0D01*
G01*
X116460000Y-113365000D01*
G75*
G02*
X116610000Y-113515000I0J-150000D01*
G01*
X116610000Y-113815000D01*
G75*
G02*
X116460000Y-113965000I-150000J0D01*
G01*
X114810000Y-113965000D01*
G75*
G02*
X114660000Y-113815000I0J150000D01*
G01*
G37*
G36*
G01*
X114660000Y-112545000D02*
X114660000Y-112245000D01*
G75*
G02*
X114810000Y-112095000I150000J0D01*
G01*
X116460000Y-112095000D01*
G75*
G02*
X116610000Y-112245000I0J-150000D01*
G01*
X116610000Y-112545000D01*
G75*
G02*
X116460000Y-112695000I-150000J0D01*
G01*
X114810000Y-112695000D01*
G75*
G02*
X114660000Y-112545000I0J150000D01*
G01*
G37*
G36*
G01*
X114660000Y-111275000D02*
X114660000Y-110975000D01*
G75*
G02*
X114810000Y-110825000I150000J0D01*
G01*
X116460000Y-110825000D01*
G75*
G02*
X116610000Y-110975000I0J-150000D01*
G01*
X116610000Y-111275000D01*
G75*
G02*
X116460000Y-111425000I-150000J0D01*
G01*
X114810000Y-111425000D01*
G75*
G02*
X114660000Y-111275000I0J150000D01*
G01*
G37*
%TD*%
M02*
