M48
; DRILL file {KiCad 5.1.8-db9833491~88~ubuntu18.04.1} date Mon Dec  7 13:58:03 2020
; FORMAT={-:-/ absolute / inch / decimal}
; #@! TF.CreationDate,2020-12-07T13:58:03+00:00
; #@! TF.GenerationSoftware,Kicad,Pcbnew,5.1.8-db9833491~88~ubuntu18.04.1
; #@! TF.FileFunction,Plated,1,2,PTH
FMAT,2
INCH
T1C0.0157
T2C0.0197
T3C0.0394
T4C0.1063
%
G90
G05
T1
X4.1152Y-3.15
X4.225Y-2.15
X4.225Y-2.375
X4.225Y-2.45
X4.225Y-2.725
X4.225Y-3.55
X4.2422Y-2.9672
X4.2844Y-3.0559
X4.325Y-2.825
X4.325Y-4.375
X4.327Y-4.598
X4.3327Y-3.0327
X4.35Y-3.15
X4.4Y-4.425
X4.4Y-4.475
X4.425Y-2.15
X4.425Y-2.825
X4.425Y-2.9055
X4.425Y-3.55
X4.45Y-3.25
X4.45Y-4.525
X4.5Y-3.45
X4.5Y-4.425
X4.5Y-4.475
X4.5112Y-3.0588
X4.5427Y-3.0283
X4.5742Y-3.0
X4.575Y-2.45
X4.575Y-3.45
X4.575Y-3.75
X4.6057Y-2.965
X4.6372Y-2.9329
X4.65Y-4.2
X4.6687Y-2.9028
X4.6933Y-2.5933
X4.7Y-2.875
X4.75Y-2.525
X4.75Y-3.25
X4.75Y-4.625
X4.7573Y-3.0107
X4.7673Y-2.6673
X4.7747Y-2.9754
X4.775Y-2.45
X4.775Y-2.875
X4.7837Y-2.6087
X4.788Y-3.0393
X4.799Y-2.9445
X4.8Y-4.425
X4.8Y-4.475
X4.8028Y-2.9028
X4.8221Y-2.5721
X4.875Y-2.35
X4.875Y-3.275
X4.875Y-4.2
X4.8822Y-3.0678
X4.8923Y-2.5423
X4.9Y-4.15
X4.9Y-4.5
X4.925Y-4.4
X4.925Y-4.45
X4.9423Y-2.5173
X4.95Y-3.0
X4.9726Y-4.225
X4.9923Y-2.4673
X5.025Y-3.15
X5.025Y-3.4
X5.0474Y-3.8
X5.0474Y-3.8394
X5.0474Y-3.94
X5.0474Y-4.3
X5.0474Y-4.4
X5.05Y-2.375
X5.05Y-4.5
X5.0528Y-3.4278
X5.0535Y-3.1785
X5.0807Y-3.4557
X5.0821Y-3.2071
X5.1Y-2.8
X5.1085Y-3.4835
X5.1106Y-3.246
X5.125Y-2.7
X5.125Y-2.925
X5.1364Y-3.5114
X5.1415Y-3.2835
X5.1494Y-2.5222
X5.15Y-4.6
X5.1642Y-3.5392
X5.1754Y-4.15
X5.179Y-3.321
X5.1827Y-2.4827
X5.195Y-3.565
X5.2079Y-3.3496
X5.2108Y-3.95
X5.225Y-4.3
X5.225Y-4.4
X5.23Y-3.71
X5.23Y-3.8
X5.25Y-3.8394
X5.25Y-4.5
X5.25Y-4.6
X5.2965Y-3.8
X5.3Y-3.1
X5.3Y-4.2
X5.3173Y-2.4423
X5.55Y-3.45
X5.575Y-4.25
X5.6035Y-3.35
X5.6285Y-2.825
X5.6285Y-3.05
T2
X5.0453Y-2.2
X5.0686Y-2.1436
X5.0686Y-2.2564
X5.125Y-2.1203
X5.125Y-2.2797
X5.1814Y-2.1436
X5.1814Y-2.2564
X5.2047Y-2.2
X5.0453Y-4.8
X5.0686Y-4.7436
X5.0686Y-4.8564
X5.125Y-4.7203
X5.125Y-4.8797
X5.1814Y-4.7436
X5.1814Y-4.8564
X5.2047Y-4.8
T3
X4.375Y-2.525
X4.375Y-2.625
X4.375Y-2.725
X4.475Y-2.525
X4.475Y-2.625
X4.475Y-2.725
X4.2Y-4.075
X4.2Y-4.175
X4.2Y-4.275
X4.2Y-4.375
X4.2Y-4.475
X4.2Y-4.575
X5.4Y-2.3
X5.4Y-2.4
X5.4Y-2.5
X5.4Y-2.6
X5.4Y-2.7
X5.4Y-2.8
X5.4Y-2.9
X5.4Y-3.0
X5.4Y-3.1
X5.4Y-3.2
X5.4Y-3.3
X5.4Y-3.4
X5.4Y-3.5
X5.4Y-3.6
X5.4Y-3.7
X5.4Y-3.8
X5.4Y-3.9
X5.4Y-4.0
X5.4Y-4.1
X5.4Y-4.2
X5.4Y-4.3
X5.4Y-4.4
X5.4Y-4.5
X5.4Y-4.6
X5.4Y-4.7
X5.5Y-2.3
X5.5Y-2.4
X5.5Y-2.5
X5.5Y-2.6
X5.5Y-2.7
X5.5Y-2.8
X5.5Y-2.9
X5.5Y-3.0
X5.5Y-3.1
X5.5Y-3.2
X5.5Y-3.3
X5.5Y-3.4
X5.5Y-3.5
X5.5Y-3.6
X5.5Y-3.7
X5.5Y-3.8
X5.5Y-3.9
X5.5Y-4.0
X5.5Y-4.1
X5.5Y-4.2
X5.5Y-4.3
X5.5Y-4.4
X5.5Y-4.5
X5.5Y-4.6
X5.5Y-4.7
T4
X5.125Y-2.2
X5.125Y-4.8
T0
M30
