%TF.GenerationSoftware,KiCad,Pcbnew,5.1.8-db9833491~88~ubuntu18.04.1*%
%TF.CreationDate,2020-12-07T14:20:23+00:00*%
%TF.ProjectId,z80_monitor,7a38305f-6d6f-46e6-9974-6f722e6b6963,1*%
%TF.SameCoordinates,Original*%
%TF.FileFunction,Copper,L1,Top*%
%TF.FilePolarity,Positive*%
%FSLAX46Y46*%
G04 Gerber Fmt 4.6, Leading zero omitted, Abs format (unit mm)*
G04 Created by KiCad (PCBNEW 5.1.8-db9833491~88~ubuntu18.04.1) date 2020-12-07 14:20:23*
%MOMM*%
%LPD*%
G01*
G04 APERTURE LIST*
%TA.AperFunction,NonConductor*%
%ADD10C,0.300000*%
%TD*%
%TA.AperFunction,NonConductor*%
%ADD11C,0.250000*%
%TD*%
%TA.AperFunction,ComponentPad*%
%ADD12C,0.800000*%
%TD*%
%TA.AperFunction,ComponentPad*%
%ADD13C,5.400000*%
%TD*%
%TA.AperFunction,SMDPad,CuDef*%
%ADD14R,1.500000X0.550000*%
%TD*%
%TA.AperFunction,SMDPad,CuDef*%
%ADD15R,0.550000X1.500000*%
%TD*%
%TA.AperFunction,ComponentPad*%
%ADD16C,1.700000*%
%TD*%
%TA.AperFunction,ComponentPad*%
%ADD17O,1.700000X1.700000*%
%TD*%
%TA.AperFunction,ComponentPad*%
%ADD18R,1.700000X1.700000*%
%TD*%
%TA.AperFunction,SMDPad,CuDef*%
%ADD19R,3.325000X2.400000*%
%TD*%
%TA.AperFunction,ViaPad*%
%ADD20C,0.800000*%
%TD*%
%TA.AperFunction,Conductor*%
%ADD21C,0.406400*%
%TD*%
%TA.AperFunction,Conductor*%
%ADD22C,0.250000*%
%TD*%
%TA.AperFunction,Conductor*%
%ADD23C,0.812800*%
%TD*%
%TA.AperFunction,Conductor*%
%ADD24C,0.254000*%
%TD*%
%TA.AperFunction,Conductor*%
%ADD25C,0.100000*%
%TD*%
G04 APERTURE END LIST*
D10*
X106891428Y-120458571D02*
X107891428Y-120458571D01*
X106891428Y-121958571D01*
X107891428Y-121958571D01*
X108677142Y-121101428D02*
X108534285Y-121030000D01*
X108462857Y-120958571D01*
X108391428Y-120815714D01*
X108391428Y-120744285D01*
X108462857Y-120601428D01*
X108534285Y-120530000D01*
X108677142Y-120458571D01*
X108962857Y-120458571D01*
X109105714Y-120530000D01*
X109177142Y-120601428D01*
X109248571Y-120744285D01*
X109248571Y-120815714D01*
X109177142Y-120958571D01*
X109105714Y-121030000D01*
X108962857Y-121101428D01*
X108677142Y-121101428D01*
X108534285Y-121172857D01*
X108462857Y-121244285D01*
X108391428Y-121387142D01*
X108391428Y-121672857D01*
X108462857Y-121815714D01*
X108534285Y-121887142D01*
X108677142Y-121958571D01*
X108962857Y-121958571D01*
X109105714Y-121887142D01*
X109177142Y-121815714D01*
X109248571Y-121672857D01*
X109248571Y-121387142D01*
X109177142Y-121244285D01*
X109105714Y-121172857D01*
X108962857Y-121101428D01*
X110177142Y-120458571D02*
X110320000Y-120458571D01*
X110462857Y-120530000D01*
X110534285Y-120601428D01*
X110605714Y-120744285D01*
X110677142Y-121030000D01*
X110677142Y-121387142D01*
X110605714Y-121672857D01*
X110534285Y-121815714D01*
X110462857Y-121887142D01*
X110320000Y-121958571D01*
X110177142Y-121958571D01*
X110034285Y-121887142D01*
X109962857Y-121815714D01*
X109891428Y-121672857D01*
X109820000Y-121387142D01*
X109820000Y-121030000D01*
X109891428Y-120744285D01*
X109962857Y-120601428D01*
X110034285Y-120530000D01*
X110177142Y-120458571D01*
X112462857Y-121958571D02*
X112462857Y-120458571D01*
X112962857Y-121530000D01*
X113462857Y-120458571D01*
X113462857Y-121958571D01*
X114391428Y-121958571D02*
X114248571Y-121887142D01*
X114177142Y-121815714D01*
X114105714Y-121672857D01*
X114105714Y-121244285D01*
X114177142Y-121101428D01*
X114248571Y-121030000D01*
X114391428Y-120958571D01*
X114605714Y-120958571D01*
X114748571Y-121030000D01*
X114820000Y-121101428D01*
X114891428Y-121244285D01*
X114891428Y-121672857D01*
X114820000Y-121815714D01*
X114748571Y-121887142D01*
X114605714Y-121958571D01*
X114391428Y-121958571D01*
X115534285Y-120958571D02*
X115534285Y-121958571D01*
X115534285Y-121101428D02*
X115605714Y-121030000D01*
X115748571Y-120958571D01*
X115962857Y-120958571D01*
X116105714Y-121030000D01*
X116177142Y-121172857D01*
X116177142Y-121958571D01*
X116891428Y-121958571D02*
X116891428Y-120958571D01*
X116891428Y-120458571D02*
X116819999Y-120530000D01*
X116891428Y-120601428D01*
X116962857Y-120530000D01*
X116891428Y-120458571D01*
X116891428Y-120601428D01*
X117391428Y-120958571D02*
X117962857Y-120958571D01*
X117605714Y-120458571D02*
X117605714Y-121744285D01*
X117677142Y-121887142D01*
X117819999Y-121958571D01*
X117962857Y-121958571D01*
X118677142Y-121958571D02*
X118534285Y-121887142D01*
X118462857Y-121815714D01*
X118391428Y-121672857D01*
X118391428Y-121244285D01*
X118462857Y-121101428D01*
X118534285Y-121030000D01*
X118677142Y-120958571D01*
X118891428Y-120958571D01*
X119034285Y-121030000D01*
X119105714Y-121101428D01*
X119177142Y-121244285D01*
X119177142Y-121672857D01*
X119105714Y-121815714D01*
X119034285Y-121887142D01*
X118891428Y-121958571D01*
X118677142Y-121958571D01*
X119819999Y-121958571D02*
X119819999Y-120958571D01*
X119819999Y-121244285D02*
X119891428Y-121101428D01*
X119962857Y-121030000D01*
X120105714Y-120958571D01*
X120248571Y-120958571D01*
X122748571Y-121958571D02*
X122248571Y-121244285D01*
X121891428Y-121958571D02*
X121891428Y-120458571D01*
X122462857Y-120458571D01*
X122605714Y-120530000D01*
X122677142Y-120601428D01*
X122748571Y-120744285D01*
X122748571Y-120958571D01*
X122677142Y-121101428D01*
X122605714Y-121172857D01*
X122462857Y-121244285D01*
X121891428Y-121244285D01*
X124177142Y-121958571D02*
X123319999Y-121958571D01*
X123748571Y-121958571D02*
X123748571Y-120458571D01*
X123605714Y-120672857D01*
X123462857Y-120815714D01*
X123319999Y-120887142D01*
X104891428Y-123008571D02*
X104891428Y-124080000D01*
X104820000Y-124294285D01*
X104677142Y-124437142D01*
X104462857Y-124508571D01*
X104320000Y-124508571D01*
X105605714Y-124365714D02*
X105677142Y-124437142D01*
X105605714Y-124508571D01*
X105534285Y-124437142D01*
X105605714Y-124365714D01*
X105605714Y-124508571D01*
X107034285Y-124508571D02*
X106320000Y-124508571D01*
X106320000Y-123008571D01*
X107534285Y-124365714D02*
X107605714Y-124437142D01*
X107534285Y-124508571D01*
X107462857Y-124437142D01*
X107534285Y-124365714D01*
X107534285Y-124508571D01*
X108248571Y-124508571D02*
X108248571Y-123008571D01*
X108748571Y-124080000D01*
X109248571Y-123008571D01*
X109248571Y-124508571D01*
X110605714Y-124508571D02*
X110605714Y-123722857D01*
X110534285Y-123580000D01*
X110391428Y-123508571D01*
X110105714Y-123508571D01*
X109962857Y-123580000D01*
X110605714Y-124437142D02*
X110462857Y-124508571D01*
X110105714Y-124508571D01*
X109962857Y-124437142D01*
X109891428Y-124294285D01*
X109891428Y-124151428D01*
X109962857Y-124008571D01*
X110105714Y-123937142D01*
X110462857Y-123937142D01*
X110605714Y-123865714D01*
X111962857Y-124437142D02*
X111820000Y-124508571D01*
X111534285Y-124508571D01*
X111391428Y-124437142D01*
X111320000Y-124365714D01*
X111248571Y-124222857D01*
X111248571Y-123794285D01*
X111320000Y-123651428D01*
X111391428Y-123580000D01*
X111534285Y-123508571D01*
X111820000Y-123508571D01*
X111962857Y-123580000D01*
X112391428Y-123508571D02*
X112962857Y-123508571D01*
X112605714Y-124508571D02*
X112605714Y-123222857D01*
X112677142Y-123080000D01*
X112820000Y-123008571D01*
X112962857Y-123008571D01*
X114105714Y-124508571D02*
X114105714Y-123722857D01*
X114034285Y-123580000D01*
X113891428Y-123508571D01*
X113605714Y-123508571D01*
X113462857Y-123580000D01*
X114105714Y-124437142D02*
X113962857Y-124508571D01*
X113605714Y-124508571D01*
X113462857Y-124437142D01*
X113391428Y-124294285D01*
X113391428Y-124151428D01*
X113462857Y-124008571D01*
X113605714Y-123937142D01*
X113962857Y-123937142D01*
X114105714Y-123865714D01*
X114820000Y-124508571D02*
X114820000Y-123508571D01*
X114820000Y-123794285D02*
X114891428Y-123651428D01*
X114962857Y-123580000D01*
X115105714Y-123508571D01*
X115248571Y-123508571D01*
X115962857Y-124508571D02*
X115820000Y-124437142D01*
X115748571Y-124294285D01*
X115748571Y-123008571D01*
X117177142Y-124508571D02*
X117177142Y-123722857D01*
X117105714Y-123580000D01*
X116962857Y-123508571D01*
X116677142Y-123508571D01*
X116534285Y-123580000D01*
X117177142Y-124437142D02*
X117034285Y-124508571D01*
X116677142Y-124508571D01*
X116534285Y-124437142D01*
X116462857Y-124294285D01*
X116462857Y-124151428D01*
X116534285Y-124008571D01*
X116677142Y-123937142D01*
X117034285Y-123937142D01*
X117177142Y-123865714D01*
X117891428Y-123508571D02*
X117891428Y-124508571D01*
X117891428Y-123651428D02*
X117962857Y-123580000D01*
X118105714Y-123508571D01*
X118320000Y-123508571D01*
X118462857Y-123580000D01*
X118534285Y-123722857D01*
X118534285Y-124508571D01*
X119820000Y-124437142D02*
X119677142Y-124508571D01*
X119391428Y-124508571D01*
X119248571Y-124437142D01*
X119177142Y-124294285D01*
X119177142Y-123722857D01*
X119248571Y-123580000D01*
X119391428Y-123508571D01*
X119677142Y-123508571D01*
X119820000Y-123580000D01*
X119891428Y-123722857D01*
X119891428Y-123865714D01*
X119177142Y-124008571D01*
X121605714Y-123151428D02*
X121677142Y-123080000D01*
X121820000Y-123008571D01*
X122177142Y-123008571D01*
X122320000Y-123080000D01*
X122391428Y-123151428D01*
X122462857Y-123294285D01*
X122462857Y-123437142D01*
X122391428Y-123651428D01*
X121534285Y-124508571D01*
X122462857Y-124508571D01*
X123391428Y-123008571D02*
X123534285Y-123008571D01*
X123677142Y-123080000D01*
X123748571Y-123151428D01*
X123820000Y-123294285D01*
X123891428Y-123580000D01*
X123891428Y-123937142D01*
X123820000Y-124222857D01*
X123748571Y-124365714D01*
X123677142Y-124437142D01*
X123534285Y-124508571D01*
X123391428Y-124508571D01*
X123248571Y-124437142D01*
X123177142Y-124365714D01*
X123105714Y-124222857D01*
X123034285Y-123937142D01*
X123034285Y-123580000D01*
X123105714Y-123294285D01*
X123177142Y-123151428D01*
X123248571Y-123080000D01*
X123391428Y-123008571D01*
X124462857Y-123151428D02*
X124534285Y-123080000D01*
X124677142Y-123008571D01*
X125034285Y-123008571D01*
X125177142Y-123080000D01*
X125248571Y-123151428D01*
X125320000Y-123294285D01*
X125320000Y-123437142D01*
X125248571Y-123651428D01*
X124391428Y-124508571D01*
X125320000Y-124508571D01*
X126248571Y-123008571D02*
X126391428Y-123008571D01*
X126534285Y-123080000D01*
X126605714Y-123151428D01*
X126677142Y-123294285D01*
X126748571Y-123580000D01*
X126748571Y-123937142D01*
X126677142Y-124222857D01*
X126605714Y-124365714D01*
X126534285Y-124437142D01*
X126391428Y-124508571D01*
X126248571Y-124508571D01*
X126105714Y-124437142D01*
X126034285Y-124365714D01*
X125962857Y-124222857D01*
X125891428Y-123937142D01*
X125891428Y-123580000D01*
X125962857Y-123294285D01*
X126034285Y-123151428D01*
X126105714Y-123080000D01*
X126248571Y-123008571D01*
D11*
X109863095Y-53697142D02*
X109815476Y-53744761D01*
X109672619Y-53792380D01*
X109577380Y-53792380D01*
X109434523Y-53744761D01*
X109339285Y-53649523D01*
X109291666Y-53554285D01*
X109244047Y-53363809D01*
X109244047Y-53220952D01*
X109291666Y-53030476D01*
X109339285Y-52935238D01*
X109434523Y-52840000D01*
X109577380Y-52792380D01*
X109672619Y-52792380D01*
X109815476Y-52840000D01*
X109863095Y-52887619D01*
X110482142Y-52792380D02*
X110672619Y-52792380D01*
X110767857Y-52840000D01*
X110863095Y-52935238D01*
X110910714Y-53125714D01*
X110910714Y-53459047D01*
X110863095Y-53649523D01*
X110767857Y-53744761D01*
X110672619Y-53792380D01*
X110482142Y-53792380D01*
X110386904Y-53744761D01*
X110291666Y-53649523D01*
X110244047Y-53459047D01*
X110244047Y-53125714D01*
X110291666Y-52935238D01*
X110386904Y-52840000D01*
X110482142Y-52792380D01*
X111339285Y-53792380D02*
X111339285Y-52792380D01*
X111672619Y-53506666D01*
X112005952Y-52792380D01*
X112005952Y-53792380D01*
X112434523Y-53744761D02*
X112577380Y-53792380D01*
X112815476Y-53792380D01*
X112910714Y-53744761D01*
X112958333Y-53697142D01*
X113005952Y-53601904D01*
X113005952Y-53506666D01*
X112958333Y-53411428D01*
X112910714Y-53363809D01*
X112815476Y-53316190D01*
X112625000Y-53268571D01*
X112529761Y-53220952D01*
X112482142Y-53173333D01*
X112434523Y-53078095D01*
X112434523Y-52982857D01*
X112482142Y-52887619D01*
X112529761Y-52840000D01*
X112625000Y-52792380D01*
X112863095Y-52792380D01*
X113005952Y-52840000D01*
X104711666Y-53792380D02*
X104711666Y-52792380D01*
X105092619Y-52792380D01*
X105187857Y-52840000D01*
X105235476Y-52887619D01*
X105283095Y-52982857D01*
X105283095Y-53125714D01*
X105235476Y-53220952D01*
X105187857Y-53268571D01*
X105092619Y-53316190D01*
X104711666Y-53316190D01*
X105616428Y-52792380D02*
X105854523Y-53792380D01*
X106045000Y-53078095D01*
X106235476Y-53792380D01*
X106473571Y-52792380D01*
X107425952Y-53792380D02*
X107092619Y-53316190D01*
X106854523Y-53792380D02*
X106854523Y-52792380D01*
X107235476Y-52792380D01*
X107330714Y-52840000D01*
X107378333Y-52887619D01*
X107425952Y-52982857D01*
X107425952Y-53125714D01*
X107378333Y-53220952D01*
X107330714Y-53268571D01*
X107235476Y-53316190D01*
X106854523Y-53316190D01*
X115538333Y-53792380D02*
X115205000Y-53316190D01*
X114966904Y-53792380D02*
X114966904Y-52792380D01*
X115347857Y-52792380D01*
X115443095Y-52840000D01*
X115490714Y-52887619D01*
X115538333Y-52982857D01*
X115538333Y-53125714D01*
X115490714Y-53220952D01*
X115443095Y-53268571D01*
X115347857Y-53316190D01*
X114966904Y-53316190D01*
X115966904Y-53268571D02*
X116300238Y-53268571D01*
X116443095Y-53792380D02*
X115966904Y-53792380D01*
X115966904Y-52792380D01*
X116443095Y-52792380D01*
X117538333Y-53887619D02*
X117443095Y-53840000D01*
X117347857Y-53744761D01*
X117205000Y-53601904D01*
X117109761Y-53554285D01*
X117014523Y-53554285D01*
X117062142Y-53792380D02*
X116966904Y-53744761D01*
X116871666Y-53649523D01*
X116824047Y-53459047D01*
X116824047Y-53125714D01*
X116871666Y-52935238D01*
X116966904Y-52840000D01*
X117062142Y-52792380D01*
X117252619Y-52792380D01*
X117347857Y-52840000D01*
X117443095Y-52935238D01*
X117490714Y-53125714D01*
X117490714Y-53459047D01*
X117443095Y-53649523D01*
X117347857Y-53744761D01*
X117252619Y-53792380D01*
X117062142Y-53792380D01*
X120046904Y-53506666D02*
X120523095Y-53506666D01*
X119951666Y-53792380D02*
X120285000Y-52792380D01*
X120618333Y-53792380D01*
X121523095Y-53697142D02*
X121475476Y-53744761D01*
X121332619Y-53792380D01*
X121237380Y-53792380D01*
X121094523Y-53744761D01*
X120999285Y-53649523D01*
X120951666Y-53554285D01*
X120904047Y-53363809D01*
X120904047Y-53220952D01*
X120951666Y-53030476D01*
X120999285Y-52935238D01*
X121094523Y-52840000D01*
X121237380Y-52792380D01*
X121332619Y-52792380D01*
X121475476Y-52840000D01*
X121523095Y-52887619D01*
X121951666Y-53792380D02*
X121951666Y-52792380D01*
X122523095Y-53792380D02*
X122094523Y-53220952D01*
X122523095Y-52792380D02*
X121951666Y-53363809D01*
X124230000Y-53792380D02*
X124230000Y-52792380D01*
X124230000Y-53268571D02*
X124801428Y-53268571D01*
X124801428Y-53792380D02*
X124801428Y-52792380D01*
X125230000Y-53506666D02*
X125706190Y-53506666D01*
X125134761Y-53792380D02*
X125468095Y-52792380D01*
X125801428Y-53792380D01*
X126610952Y-53792380D02*
X126134761Y-53792380D01*
X126134761Y-52792380D01*
X126801428Y-52792380D02*
X127372857Y-52792380D01*
X127087142Y-53792380D02*
X127087142Y-52792380D01*
D12*
%TO.P,H2,1*%
%TO.N,GND*%
X131606891Y-120488109D03*
X130175000Y-119895000D03*
X128743109Y-120488109D03*
X128150000Y-121920000D03*
X128743109Y-123351891D03*
X130175000Y-123945000D03*
X131606891Y-123351891D03*
X132200000Y-121920000D03*
D13*
X130175000Y-121920000D03*
%TD*%
D12*
%TO.P,H1,1*%
%TO.N,GND*%
X131606891Y-54448109D03*
X130175000Y-53855000D03*
X128743109Y-54448109D03*
X128150000Y-55880000D03*
X128743109Y-57311891D03*
X130175000Y-57905000D03*
X131606891Y-57311891D03*
X132200000Y-55880000D03*
D13*
X130175000Y-55880000D03*
%TD*%
%TO.P,C2,2*%
%TO.N,GND*%
%TA.AperFunction,SMDPad,CuDef*%
G36*
G01*
X119095000Y-117712500D02*
X119095000Y-117237500D01*
G75*
G02*
X119332500Y-117000000I237500J0D01*
G01*
X119907500Y-117000000D01*
G75*
G02*
X120145000Y-117237500I0J-237500D01*
G01*
X120145000Y-117712500D01*
G75*
G02*
X119907500Y-117950000I-237500J0D01*
G01*
X119332500Y-117950000D01*
G75*
G02*
X119095000Y-117712500I0J237500D01*
G01*
G37*
%TD.AperFunction*%
%TO.P,C2,1*%
%TO.N,/ISO_GND*%
%TA.AperFunction,SMDPad,CuDef*%
G36*
G01*
X117345000Y-117712500D02*
X117345000Y-117237500D01*
G75*
G02*
X117582500Y-117000000I237500J0D01*
G01*
X118157500Y-117000000D01*
G75*
G02*
X118395000Y-117237500I0J-237500D01*
G01*
X118395000Y-117712500D01*
G75*
G02*
X118157500Y-117950000I-237500J0D01*
G01*
X117582500Y-117950000D01*
G75*
G02*
X117345000Y-117712500I0J237500D01*
G01*
G37*
%TD.AperFunction*%
%TD*%
%TO.P,D5,2*%
%TO.N,Net-(D5-Pad2)*%
%TA.AperFunction,SMDPad,CuDef*%
G36*
G01*
X121047500Y-56230000D02*
X121522500Y-56230000D01*
G75*
G02*
X121760000Y-56467500I0J-237500D01*
G01*
X121760000Y-57042500D01*
G75*
G02*
X121522500Y-57280000I-237500J0D01*
G01*
X121047500Y-57280000D01*
G75*
G02*
X120810000Y-57042500I0J237500D01*
G01*
X120810000Y-56467500D01*
G75*
G02*
X121047500Y-56230000I237500J0D01*
G01*
G37*
%TD.AperFunction*%
%TO.P,D5,1*%
%TO.N,/~BUSAK~*%
%TA.AperFunction,SMDPad,CuDef*%
G36*
G01*
X121047500Y-54480000D02*
X121522500Y-54480000D01*
G75*
G02*
X121760000Y-54717500I0J-237500D01*
G01*
X121760000Y-55292500D01*
G75*
G02*
X121522500Y-55530000I-237500J0D01*
G01*
X121047500Y-55530000D01*
G75*
G02*
X120810000Y-55292500I0J237500D01*
G01*
X120810000Y-54717500D01*
G75*
G02*
X121047500Y-54480000I237500J0D01*
G01*
G37*
%TD.AperFunction*%
%TD*%
D14*
%TO.P,U2,1*%
%TO.N,/~NMI~*%
X110410000Y-82900000D03*
%TO.P,U2,2*%
%TO.N,/PDI*%
X110410000Y-83700000D03*
%TO.P,U2,3*%
%TO.N,/PDO*%
X110410000Y-84500000D03*
%TO.P,U2,4*%
%TO.N,/RSVD0*%
X110410000Y-85300000D03*
%TO.P,U2,5*%
%TO.N,/~BUSRQ~*%
X110410000Y-86100000D03*
%TO.P,U2,6*%
%TO.N,/~BUSAK~*%
X110410000Y-86900000D03*
%TO.P,U2,7*%
%TO.N,/~HALT~*%
X110410000Y-87700000D03*
%TO.P,U2,8*%
%TO.N,/RSVD1*%
X110410000Y-88500000D03*
%TO.P,U2,9*%
%TO.N,/RSVD2*%
X110410000Y-89300000D03*
%TO.P,U2,10*%
%TO.N,Net-(U2-Pad10)*%
X110410000Y-90100000D03*
%TO.P,U2,11*%
%TO.N,/SCK*%
X110410000Y-90900000D03*
%TO.P,U2,12*%
%TO.N,Net-(U2-Pad12)*%
X110410000Y-91700000D03*
%TO.P,U2,13*%
%TO.N,Net-(U2-Pad13)*%
X110410000Y-92500000D03*
%TO.P,U2,14*%
%TO.N,Net-(R3-Pad2)*%
X110410000Y-93300000D03*
%TO.P,U2,15*%
%TO.N,Net-(U2-Pad15)*%
X110410000Y-94100000D03*
%TO.P,U2,16*%
%TO.N,Net-(U2-Pad16)*%
X110410000Y-94900000D03*
D15*
%TO.P,U2,17*%
%TO.N,Net-(U2-Pad17)*%
X112110000Y-96600000D03*
%TO.P,U2,18*%
%TO.N,Net-(U2-Pad18)*%
X112910000Y-96600000D03*
%TO.P,U2,19*%
%TO.N,Net-(U2-Pad19)*%
X113710000Y-96600000D03*
%TO.P,U2,20*%
%TO.N,/~RST~*%
X114510000Y-96600000D03*
%TO.P,U2,21*%
%TO.N,+5V*%
X115310000Y-96600000D03*
%TO.P,U2,22*%
%TO.N,GND*%
X116110000Y-96600000D03*
%TO.P,U2,23*%
%TO.N,Net-(C4-Pad1)*%
X116910000Y-96600000D03*
%TO.P,U2,24*%
%TO.N,Net-(C3-Pad1)*%
X117710000Y-96600000D03*
%TO.P,U2,25*%
%TO.N,/~IORQ~*%
X118510000Y-96600000D03*
%TO.P,U2,26*%
%TO.N,/~MREQ~*%
X119310000Y-96600000D03*
%TO.P,U2,27*%
%TO.N,/RXD1*%
X120110000Y-96600000D03*
%TO.P,U2,28*%
%TO.N,/TXD1*%
X120910000Y-96600000D03*
%TO.P,U2,29*%
%TO.N,/~RD~*%
X121710000Y-96600000D03*
%TO.P,U2,30*%
%TO.N,/~WR~*%
X122510000Y-96600000D03*
%TO.P,U2,31*%
%TO.N,/~M1~*%
X123310000Y-96600000D03*
%TO.P,U2,32*%
%TO.N,/~RESET~*%
X124110000Y-96600000D03*
D14*
%TO.P,U2,33*%
%TO.N,/~WAIT~*%
X125810000Y-94900000D03*
%TO.P,U2,34*%
%TO.N,/~INT~*%
X125810000Y-94100000D03*
%TO.P,U2,35*%
%TO.N,/D0*%
X125810000Y-93300000D03*
%TO.P,U2,36*%
%TO.N,/D1*%
X125810000Y-92500000D03*
%TO.P,U2,37*%
%TO.N,/D2*%
X125810000Y-91700000D03*
%TO.P,U2,38*%
%TO.N,/D3*%
X125810000Y-90900000D03*
%TO.P,U2,39*%
%TO.N,/D4*%
X125810000Y-90100000D03*
%TO.P,U2,40*%
%TO.N,/D5*%
X125810000Y-89300000D03*
%TO.P,U2,41*%
%TO.N,/D6*%
X125810000Y-88500000D03*
%TO.P,U2,42*%
%TO.N,/D7*%
X125810000Y-87700000D03*
%TO.P,U2,43*%
%TO.N,Net-(U2-Pad43)*%
X125810000Y-86900000D03*
%TO.P,U2,44*%
%TO.N,/A7*%
X125810000Y-86100000D03*
%TO.P,U2,45*%
%TO.N,/A6*%
X125810000Y-85300000D03*
%TO.P,U2,46*%
%TO.N,/A5*%
X125810000Y-84500000D03*
%TO.P,U2,47*%
%TO.N,/A4*%
X125810000Y-83700000D03*
%TO.P,U2,48*%
%TO.N,/A3*%
X125810000Y-82900000D03*
D15*
%TO.P,U2,49*%
%TO.N,/A2*%
X124110000Y-81200000D03*
%TO.P,U2,50*%
%TO.N,/A1*%
X123310000Y-81200000D03*
%TO.P,U2,51*%
%TO.N,/A0*%
X122510000Y-81200000D03*
%TO.P,U2,52*%
%TO.N,+5V*%
X121710000Y-81200000D03*
%TO.P,U2,53*%
%TO.N,GND*%
X120910000Y-81200000D03*
%TO.P,U2,54*%
%TO.N,/A15*%
X120110000Y-81200000D03*
%TO.P,U2,55*%
%TO.N,/A14*%
X119310000Y-81200000D03*
%TO.P,U2,56*%
%TO.N,/A13*%
X118510000Y-81200000D03*
%TO.P,U2,57*%
%TO.N,/A12*%
X117710000Y-81200000D03*
%TO.P,U2,58*%
%TO.N,/A11*%
X116910000Y-81200000D03*
%TO.P,U2,59*%
%TO.N,/A10*%
X116110000Y-81200000D03*
%TO.P,U2,60*%
%TO.N,/A9*%
X115310000Y-81200000D03*
%TO.P,U2,61*%
%TO.N,/A8*%
X114510000Y-81200000D03*
%TO.P,U2,62*%
%TO.N,+5V*%
X113710000Y-81200000D03*
%TO.P,U2,63*%
%TO.N,GND*%
X112910000Y-81200000D03*
%TO.P,U2,64*%
%TO.N,+5V*%
X112110000Y-81200000D03*
%TD*%
%TO.P,C5,2*%
%TO.N,+5V*%
%TA.AperFunction,SMDPad,CuDef*%
G36*
G01*
X123427500Y-112680000D02*
X122952500Y-112680000D01*
G75*
G02*
X122715000Y-112442500I0J237500D01*
G01*
X122715000Y-111867500D01*
G75*
G02*
X122952500Y-111630000I237500J0D01*
G01*
X123427500Y-111630000D01*
G75*
G02*
X123665000Y-111867500I0J-237500D01*
G01*
X123665000Y-112442500D01*
G75*
G02*
X123427500Y-112680000I-237500J0D01*
G01*
G37*
%TD.AperFunction*%
%TO.P,C5,1*%
%TO.N,GND*%
%TA.AperFunction,SMDPad,CuDef*%
G36*
G01*
X123427500Y-114430000D02*
X122952500Y-114430000D01*
G75*
G02*
X122715000Y-114192500I0J237500D01*
G01*
X122715000Y-113617500D01*
G75*
G02*
X122952500Y-113380000I237500J0D01*
G01*
X123427500Y-113380000D01*
G75*
G02*
X123665000Y-113617500I0J-237500D01*
G01*
X123665000Y-114192500D01*
G75*
G02*
X123427500Y-114430000I-237500J0D01*
G01*
G37*
%TD.AperFunction*%
%TD*%
%TO.P,C8,2*%
%TO.N,GND*%
%TA.AperFunction,SMDPad,CuDef*%
G36*
G01*
X115285000Y-99932500D02*
X115285000Y-99457500D01*
G75*
G02*
X115522500Y-99220000I237500J0D01*
G01*
X116097500Y-99220000D01*
G75*
G02*
X116335000Y-99457500I0J-237500D01*
G01*
X116335000Y-99932500D01*
G75*
G02*
X116097500Y-100170000I-237500J0D01*
G01*
X115522500Y-100170000D01*
G75*
G02*
X115285000Y-99932500I0J237500D01*
G01*
G37*
%TD.AperFunction*%
%TO.P,C8,1*%
%TO.N,+5V*%
%TA.AperFunction,SMDPad,CuDef*%
G36*
G01*
X113535000Y-99932500D02*
X113535000Y-99457500D01*
G75*
G02*
X113772500Y-99220000I237500J0D01*
G01*
X114347500Y-99220000D01*
G75*
G02*
X114585000Y-99457500I0J-237500D01*
G01*
X114585000Y-99932500D01*
G75*
G02*
X114347500Y-100170000I-237500J0D01*
G01*
X113772500Y-100170000D01*
G75*
G02*
X113535000Y-99932500I0J237500D01*
G01*
G37*
%TD.AperFunction*%
%TD*%
%TO.P,C1,2*%
%TO.N,Net-(C1-Pad2)*%
%TA.AperFunction,SMDPad,CuDef*%
G36*
G01*
X113267500Y-112680000D02*
X112792500Y-112680000D01*
G75*
G02*
X112555000Y-112442500I0J237500D01*
G01*
X112555000Y-111867500D01*
G75*
G02*
X112792500Y-111630000I237500J0D01*
G01*
X113267500Y-111630000D01*
G75*
G02*
X113505000Y-111867500I0J-237500D01*
G01*
X113505000Y-112442500D01*
G75*
G02*
X113267500Y-112680000I-237500J0D01*
G01*
G37*
%TD.AperFunction*%
%TO.P,C1,1*%
%TO.N,/ISO_GND*%
%TA.AperFunction,SMDPad,CuDef*%
G36*
G01*
X113267500Y-114430000D02*
X112792500Y-114430000D01*
G75*
G02*
X112555000Y-114192500I0J237500D01*
G01*
X112555000Y-113617500D01*
G75*
G02*
X112792500Y-113380000I237500J0D01*
G01*
X113267500Y-113380000D01*
G75*
G02*
X113505000Y-113617500I0J-237500D01*
G01*
X113505000Y-114192500D01*
G75*
G02*
X113267500Y-114430000I-237500J0D01*
G01*
G37*
%TD.AperFunction*%
%TD*%
D16*
%TO.P,J3,50*%
%TO.N,GND*%
X137160000Y-58420000D03*
%TO.P,J3,48*%
%TO.N,/RSVD2*%
X137160000Y-60960000D03*
%TO.P,J3,46*%
%TO.N,/RSVD1*%
X137160000Y-63500000D03*
%TO.P,J3,44*%
%TO.N,GND*%
X137160000Y-66040000D03*
%TO.P,J3,42*%
%TO.N,/~BUSRQ~*%
X137160000Y-68580000D03*
%TO.P,J3,40*%
%TO.N,/~BUSAK~*%
X137160000Y-71120000D03*
%TO.P,J3,38*%
%TO.N,/~HALT~*%
X137160000Y-73660000D03*
%TO.P,J3,36*%
%TO.N,/~MREQ~*%
X137160000Y-76200000D03*
%TO.P,J3,34*%
%TO.N,GND*%
X137160000Y-78740000D03*
%TO.P,J3,32*%
%TO.N,+5V*%
X137160000Y-81280000D03*
%TO.P,J3,30*%
X137160000Y-83820000D03*
%TO.P,J3,28*%
%TO.N,/RSVD0*%
X137160000Y-86360000D03*
%TO.P,J3,26*%
%TO.N,/~NMI~*%
X137160000Y-88900000D03*
%TO.P,J3,24*%
%TO.N,GND*%
X137160000Y-91440000D03*
%TO.P,J3,22*%
%TO.N,/~INT~*%
X137160000Y-93980000D03*
%TO.P,J3,20*%
%TO.N,/~WAIT~*%
X137160000Y-96520000D03*
%TO.P,J3,18*%
%TO.N,GND*%
X137160000Y-99060000D03*
%TO.P,J3,16*%
%TO.N,/~RESET~*%
X137160000Y-101600000D03*
%TO.P,J3,14*%
%TO.N,/CLK*%
X137160000Y-104140000D03*
%TO.P,J3,12*%
%TO.N,GND*%
X137160000Y-106680000D03*
%TO.P,J3,10*%
%TO.N,/~M1~*%
X137160000Y-109220000D03*
%TO.P,J3,8*%
%TO.N,/~WR~*%
X137160000Y-111760000D03*
%TO.P,J3,6*%
%TO.N,/~RD~*%
X137160000Y-114300000D03*
%TO.P,J3,4*%
%TO.N,/~IORQ~*%
X137160000Y-116840000D03*
%TO.P,J3,2*%
%TO.N,GND*%
X137160000Y-119380000D03*
%TO.P,J3,49*%
%TO.N,/A15*%
X139700000Y-58420000D03*
%TO.P,J3,47*%
%TO.N,/A14*%
X139700000Y-60960000D03*
%TO.P,J3,45*%
%TO.N,/A13*%
X139700000Y-63500000D03*
%TO.P,J3,43*%
%TO.N,/A12*%
X139700000Y-66040000D03*
%TO.P,J3,41*%
%TO.N,/A11*%
X139700000Y-68580000D03*
%TO.P,J3,39*%
%TO.N,/A10*%
X139700000Y-71120000D03*
%TO.P,J3,37*%
%TO.N,/A9*%
X139700000Y-73660000D03*
%TO.P,J3,35*%
%TO.N,/A8*%
X139700000Y-76200000D03*
%TO.P,J3,33*%
%TO.N,/A7*%
X139700000Y-78740000D03*
%TO.P,J3,31*%
%TO.N,/A6*%
X139700000Y-81280000D03*
%TO.P,J3,29*%
%TO.N,/A5*%
X139700000Y-83820000D03*
%TO.P,J3,27*%
%TO.N,/A4*%
X139700000Y-86360000D03*
%TO.P,J3,25*%
%TO.N,/A3*%
X139700000Y-88900000D03*
%TO.P,J3,23*%
%TO.N,/A2*%
X139700000Y-91440000D03*
%TO.P,J3,21*%
%TO.N,/A1*%
X139700000Y-93980000D03*
%TO.P,J3,19*%
%TO.N,/A0*%
X139700000Y-96520000D03*
%TO.P,J3,17*%
%TO.N,GND*%
X139700000Y-99060000D03*
%TO.P,J3,15*%
%TO.N,/D7*%
X139700000Y-101600000D03*
%TO.P,J3,13*%
%TO.N,/D6*%
X139700000Y-104140000D03*
%TO.P,J3,11*%
%TO.N,/D5*%
X139700000Y-106680000D03*
%TO.P,J3,9*%
%TO.N,/D4*%
X139700000Y-109220000D03*
%TO.P,J3,7*%
%TO.N,/D3*%
X139700000Y-111760000D03*
%TO.P,J3,5*%
%TO.N,/D2*%
X139700000Y-114300000D03*
%TO.P,J3,3*%
%TO.N,/D1*%
X139700000Y-116840000D03*
%TO.P,J3,1*%
%TO.N,/D0*%
%TA.AperFunction,ComponentPad*%
G36*
G01*
X140550000Y-118780000D02*
X140550000Y-119980000D01*
G75*
G02*
X140300000Y-120230000I-250000J0D01*
G01*
X139100000Y-120230000D01*
G75*
G02*
X138850000Y-119980000I0J250000D01*
G01*
X138850000Y-118780000D01*
G75*
G02*
X139100000Y-118530000I250000J0D01*
G01*
X140300000Y-118530000D01*
G75*
G02*
X140550000Y-118780000I0J-250000D01*
G01*
G37*
%TD.AperFunction*%
%TD*%
%TO.P,R2,2*%
%TO.N,/~RST~*%
%TA.AperFunction,SMDPad,CuDef*%
G36*
G01*
X117712500Y-64420000D02*
X117237500Y-64420000D01*
G75*
G02*
X117000000Y-64182500I0J237500D01*
G01*
X117000000Y-63607500D01*
G75*
G02*
X117237500Y-63370000I237500J0D01*
G01*
X117712500Y-63370000D01*
G75*
G02*
X117950000Y-63607500I0J-237500D01*
G01*
X117950000Y-64182500D01*
G75*
G02*
X117712500Y-64420000I-237500J0D01*
G01*
G37*
%TD.AperFunction*%
%TO.P,R2,1*%
%TO.N,+5V*%
%TA.AperFunction,SMDPad,CuDef*%
G36*
G01*
X117712500Y-66170000D02*
X117237500Y-66170000D01*
G75*
G02*
X117000000Y-65932500I0J237500D01*
G01*
X117000000Y-65357500D01*
G75*
G02*
X117237500Y-65120000I237500J0D01*
G01*
X117712500Y-65120000D01*
G75*
G02*
X117950000Y-65357500I0J-237500D01*
G01*
X117950000Y-65932500D01*
G75*
G02*
X117712500Y-66170000I-237500J0D01*
G01*
G37*
%TD.AperFunction*%
%TD*%
D17*
%TO.P,J2,6*%
%TO.N,GND*%
X111125000Y-64135000D03*
%TO.P,J2,5*%
%TO.N,/~RST~*%
X113665000Y-64135000D03*
%TO.P,J2,4*%
%TO.N,/PDI*%
X111125000Y-66675000D03*
%TO.P,J2,3*%
%TO.N,/SCK*%
X113665000Y-66675000D03*
%TO.P,J2,2*%
%TO.N,+5V*%
X111125000Y-69215000D03*
D18*
%TO.P,J2,1*%
%TO.N,/PDO*%
X113665000Y-69215000D03*
%TD*%
%TO.P,C9,2*%
%TO.N,GND*%
%TA.AperFunction,SMDPad,CuDef*%
G36*
G01*
X130800000Y-76060000D02*
X129550000Y-76060000D01*
G75*
G02*
X129300000Y-75810000I0J250000D01*
G01*
X129300000Y-74885000D01*
G75*
G02*
X129550000Y-74635000I250000J0D01*
G01*
X130800000Y-74635000D01*
G75*
G02*
X131050000Y-74885000I0J-250000D01*
G01*
X131050000Y-75810000D01*
G75*
G02*
X130800000Y-76060000I-250000J0D01*
G01*
G37*
%TD.AperFunction*%
%TO.P,C9,1*%
%TO.N,+5V*%
%TA.AperFunction,SMDPad,CuDef*%
G36*
G01*
X130800000Y-79035000D02*
X129550000Y-79035000D01*
G75*
G02*
X129300000Y-78785000I0J250000D01*
G01*
X129300000Y-77860000D01*
G75*
G02*
X129550000Y-77610000I250000J0D01*
G01*
X130800000Y-77610000D01*
G75*
G02*
X131050000Y-77860000I0J-250000D01*
G01*
X131050000Y-78785000D01*
G75*
G02*
X130800000Y-79035000I-250000J0D01*
G01*
G37*
%TD.AperFunction*%
%TD*%
%TO.P,C7,2*%
%TO.N,GND*%
%TA.AperFunction,SMDPad,CuDef*%
G36*
G01*
X112745000Y-78977500D02*
X112745000Y-78502500D01*
G75*
G02*
X112982500Y-78265000I237500J0D01*
G01*
X113557500Y-78265000D01*
G75*
G02*
X113795000Y-78502500I0J-237500D01*
G01*
X113795000Y-78977500D01*
G75*
G02*
X113557500Y-79215000I-237500J0D01*
G01*
X112982500Y-79215000D01*
G75*
G02*
X112745000Y-78977500I0J237500D01*
G01*
G37*
%TD.AperFunction*%
%TO.P,C7,1*%
%TO.N,+5V*%
%TA.AperFunction,SMDPad,CuDef*%
G36*
G01*
X110995000Y-78977500D02*
X110995000Y-78502500D01*
G75*
G02*
X111232500Y-78265000I237500J0D01*
G01*
X111807500Y-78265000D01*
G75*
G02*
X112045000Y-78502500I0J-237500D01*
G01*
X112045000Y-78977500D01*
G75*
G02*
X111807500Y-79215000I-237500J0D01*
G01*
X111232500Y-79215000D01*
G75*
G02*
X110995000Y-78977500I0J237500D01*
G01*
G37*
%TD.AperFunction*%
%TD*%
%TO.P,C6,2*%
%TO.N,GND*%
%TA.AperFunction,SMDPad,CuDef*%
G36*
G01*
X121570000Y-78502500D02*
X121570000Y-78977500D01*
G75*
G02*
X121332500Y-79215000I-237500J0D01*
G01*
X120757500Y-79215000D01*
G75*
G02*
X120520000Y-78977500I0J237500D01*
G01*
X120520000Y-78502500D01*
G75*
G02*
X120757500Y-78265000I237500J0D01*
G01*
X121332500Y-78265000D01*
G75*
G02*
X121570000Y-78502500I0J-237500D01*
G01*
G37*
%TD.AperFunction*%
%TO.P,C6,1*%
%TO.N,+5V*%
%TA.AperFunction,SMDPad,CuDef*%
G36*
G01*
X123320000Y-78502500D02*
X123320000Y-78977500D01*
G75*
G02*
X123082500Y-79215000I-237500J0D01*
G01*
X122507500Y-79215000D01*
G75*
G02*
X122270000Y-78977500I0J237500D01*
G01*
X122270000Y-78502500D01*
G75*
G02*
X122507500Y-78265000I237500J0D01*
G01*
X123082500Y-78265000D01*
G75*
G02*
X123320000Y-78502500I0J-237500D01*
G01*
G37*
%TD.AperFunction*%
%TD*%
%TO.P,C4,2*%
%TO.N,GND*%
%TA.AperFunction,SMDPad,CuDef*%
G36*
G01*
X115920000Y-106917500D02*
X115920000Y-106442500D01*
G75*
G02*
X116157500Y-106205000I237500J0D01*
G01*
X116732500Y-106205000D01*
G75*
G02*
X116970000Y-106442500I0J-237500D01*
G01*
X116970000Y-106917500D01*
G75*
G02*
X116732500Y-107155000I-237500J0D01*
G01*
X116157500Y-107155000D01*
G75*
G02*
X115920000Y-106917500I0J237500D01*
G01*
G37*
%TD.AperFunction*%
%TO.P,C4,1*%
%TO.N,Net-(C4-Pad1)*%
%TA.AperFunction,SMDPad,CuDef*%
G36*
G01*
X114170000Y-106917500D02*
X114170000Y-106442500D01*
G75*
G02*
X114407500Y-106205000I237500J0D01*
G01*
X114982500Y-106205000D01*
G75*
G02*
X115220000Y-106442500I0J-237500D01*
G01*
X115220000Y-106917500D01*
G75*
G02*
X114982500Y-107155000I-237500J0D01*
G01*
X114407500Y-107155000D01*
G75*
G02*
X114170000Y-106917500I0J237500D01*
G01*
G37*
%TD.AperFunction*%
%TD*%
%TO.P,C3,2*%
%TO.N,GND*%
%TA.AperFunction,SMDPad,CuDef*%
G36*
G01*
X120300000Y-106442500D02*
X120300000Y-106917500D01*
G75*
G02*
X120062500Y-107155000I-237500J0D01*
G01*
X119487500Y-107155000D01*
G75*
G02*
X119250000Y-106917500I0J237500D01*
G01*
X119250000Y-106442500D01*
G75*
G02*
X119487500Y-106205000I237500J0D01*
G01*
X120062500Y-106205000D01*
G75*
G02*
X120300000Y-106442500I0J-237500D01*
G01*
G37*
%TD.AperFunction*%
%TO.P,C3,1*%
%TO.N,Net-(C3-Pad1)*%
%TA.AperFunction,SMDPad,CuDef*%
G36*
G01*
X122050000Y-106442500D02*
X122050000Y-106917500D01*
G75*
G02*
X121812500Y-107155000I-237500J0D01*
G01*
X121237500Y-107155000D01*
G75*
G02*
X121000000Y-106917500I0J237500D01*
G01*
X121000000Y-106442500D01*
G75*
G02*
X121237500Y-106205000I237500J0D01*
G01*
X121812500Y-106205000D01*
G75*
G02*
X122050000Y-106442500I0J-237500D01*
G01*
G37*
%TD.AperFunction*%
%TD*%
%TO.P,R7,2*%
%TO.N,Net-(D6-Pad2)*%
%TA.AperFunction,SMDPad,CuDef*%
G36*
G01*
X125967500Y-59340000D02*
X125492500Y-59340000D01*
G75*
G02*
X125255000Y-59102500I0J237500D01*
G01*
X125255000Y-58527500D01*
G75*
G02*
X125492500Y-58290000I237500J0D01*
G01*
X125967500Y-58290000D01*
G75*
G02*
X126205000Y-58527500I0J-237500D01*
G01*
X126205000Y-59102500D01*
G75*
G02*
X125967500Y-59340000I-237500J0D01*
G01*
G37*
%TD.AperFunction*%
%TO.P,R7,1*%
%TO.N,+5V*%
%TA.AperFunction,SMDPad,CuDef*%
G36*
G01*
X125967500Y-61090000D02*
X125492500Y-61090000D01*
G75*
G02*
X125255000Y-60852500I0J237500D01*
G01*
X125255000Y-60277500D01*
G75*
G02*
X125492500Y-60040000I237500J0D01*
G01*
X125967500Y-60040000D01*
G75*
G02*
X126205000Y-60277500I0J-237500D01*
G01*
X126205000Y-60852500D01*
G75*
G02*
X125967500Y-61090000I-237500J0D01*
G01*
G37*
%TD.AperFunction*%
%TD*%
%TO.P,R6,2*%
%TO.N,Net-(D5-Pad2)*%
%TA.AperFunction,SMDPad,CuDef*%
G36*
G01*
X121522500Y-59340000D02*
X121047500Y-59340000D01*
G75*
G02*
X120810000Y-59102500I0J237500D01*
G01*
X120810000Y-58527500D01*
G75*
G02*
X121047500Y-58290000I237500J0D01*
G01*
X121522500Y-58290000D01*
G75*
G02*
X121760000Y-58527500I0J-237500D01*
G01*
X121760000Y-59102500D01*
G75*
G02*
X121522500Y-59340000I-237500J0D01*
G01*
G37*
%TD.AperFunction*%
%TO.P,R6,1*%
%TO.N,+5V*%
%TA.AperFunction,SMDPad,CuDef*%
G36*
G01*
X121522500Y-61090000D02*
X121047500Y-61090000D01*
G75*
G02*
X120810000Y-60852500I0J237500D01*
G01*
X120810000Y-60277500D01*
G75*
G02*
X121047500Y-60040000I237500J0D01*
G01*
X121522500Y-60040000D01*
G75*
G02*
X121760000Y-60277500I0J-237500D01*
G01*
X121760000Y-60852500D01*
G75*
G02*
X121522500Y-61090000I-237500J0D01*
G01*
G37*
%TD.AperFunction*%
%TD*%
%TO.P,R5,2*%
%TO.N,Net-(D4-Pad2)*%
%TA.AperFunction,SMDPad,CuDef*%
G36*
G01*
X116442500Y-59340000D02*
X115967500Y-59340000D01*
G75*
G02*
X115730000Y-59102500I0J237500D01*
G01*
X115730000Y-58527500D01*
G75*
G02*
X115967500Y-58290000I237500J0D01*
G01*
X116442500Y-58290000D01*
G75*
G02*
X116680000Y-58527500I0J-237500D01*
G01*
X116680000Y-59102500D01*
G75*
G02*
X116442500Y-59340000I-237500J0D01*
G01*
G37*
%TD.AperFunction*%
%TO.P,R5,1*%
%TO.N,+5V*%
%TA.AperFunction,SMDPad,CuDef*%
G36*
G01*
X116442500Y-61090000D02*
X115967500Y-61090000D01*
G75*
G02*
X115730000Y-60852500I0J237500D01*
G01*
X115730000Y-60277500D01*
G75*
G02*
X115967500Y-60040000I237500J0D01*
G01*
X116442500Y-60040000D01*
G75*
G02*
X116680000Y-60277500I0J-237500D01*
G01*
X116680000Y-60852500D01*
G75*
G02*
X116442500Y-61090000I-237500J0D01*
G01*
G37*
%TD.AperFunction*%
%TD*%
%TO.P,R4,2*%
%TO.N,Net-(D3-Pad2)*%
%TA.AperFunction,SMDPad,CuDef*%
G36*
G01*
X106282500Y-59340000D02*
X105807500Y-59340000D01*
G75*
G02*
X105570000Y-59102500I0J237500D01*
G01*
X105570000Y-58527500D01*
G75*
G02*
X105807500Y-58290000I237500J0D01*
G01*
X106282500Y-58290000D01*
G75*
G02*
X106520000Y-58527500I0J-237500D01*
G01*
X106520000Y-59102500D01*
G75*
G02*
X106282500Y-59340000I-237500J0D01*
G01*
G37*
%TD.AperFunction*%
%TO.P,R4,1*%
%TO.N,+5V*%
%TA.AperFunction,SMDPad,CuDef*%
G36*
G01*
X106282500Y-61090000D02*
X105807500Y-61090000D01*
G75*
G02*
X105570000Y-60852500I0J237500D01*
G01*
X105570000Y-60277500D01*
G75*
G02*
X105807500Y-60040000I237500J0D01*
G01*
X106282500Y-60040000D01*
G75*
G02*
X106520000Y-60277500I0J-237500D01*
G01*
X106520000Y-60852500D01*
G75*
G02*
X106282500Y-61090000I-237500J0D01*
G01*
G37*
%TD.AperFunction*%
%TD*%
%TO.P,R3,2*%
%TO.N,Net-(R3-Pad2)*%
%TA.AperFunction,SMDPad,CuDef*%
G36*
G01*
X110887500Y-60040000D02*
X111362500Y-60040000D01*
G75*
G02*
X111600000Y-60277500I0J-237500D01*
G01*
X111600000Y-60852500D01*
G75*
G02*
X111362500Y-61090000I-237500J0D01*
G01*
X110887500Y-61090000D01*
G75*
G02*
X110650000Y-60852500I0J237500D01*
G01*
X110650000Y-60277500D01*
G75*
G02*
X110887500Y-60040000I237500J0D01*
G01*
G37*
%TD.AperFunction*%
%TO.P,R3,1*%
%TO.N,Net-(D2-Pad2)*%
%TA.AperFunction,SMDPad,CuDef*%
G36*
G01*
X110887500Y-58290000D02*
X111362500Y-58290000D01*
G75*
G02*
X111600000Y-58527500I0J-237500D01*
G01*
X111600000Y-59102500D01*
G75*
G02*
X111362500Y-59340000I-237500J0D01*
G01*
X110887500Y-59340000D01*
G75*
G02*
X110650000Y-59102500I0J237500D01*
G01*
X110650000Y-58527500D01*
G75*
G02*
X110887500Y-58290000I237500J0D01*
G01*
G37*
%TD.AperFunction*%
%TD*%
%TO.P,R1,2*%
%TO.N,Net-(D1-Pad2)*%
%TA.AperFunction,SMDPad,CuDef*%
G36*
G01*
X113950000Y-117237500D02*
X113950000Y-117712500D01*
G75*
G02*
X113712500Y-117950000I-237500J0D01*
G01*
X113137500Y-117950000D01*
G75*
G02*
X112900000Y-117712500I0J237500D01*
G01*
X112900000Y-117237500D01*
G75*
G02*
X113137500Y-117000000I237500J0D01*
G01*
X113712500Y-117000000D01*
G75*
G02*
X113950000Y-117237500I0J-237500D01*
G01*
G37*
%TD.AperFunction*%
%TO.P,R1,1*%
%TO.N,Net-(C1-Pad2)*%
%TA.AperFunction,SMDPad,CuDef*%
G36*
G01*
X115700000Y-117237500D02*
X115700000Y-117712500D01*
G75*
G02*
X115462500Y-117950000I-237500J0D01*
G01*
X114887500Y-117950000D01*
G75*
G02*
X114650000Y-117712500I0J237500D01*
G01*
X114650000Y-117237500D01*
G75*
G02*
X114887500Y-117000000I237500J0D01*
G01*
X115462500Y-117000000D01*
G75*
G02*
X115700000Y-117237500I0J-237500D01*
G01*
G37*
%TD.AperFunction*%
%TD*%
D17*
%TO.P,J1,6*%
%TO.N,Net-(J1-Pad6)*%
X106680000Y-103505000D03*
%TO.P,J1,5*%
%TO.N,Net-(J1-Pad5)*%
X106680000Y-106045000D03*
%TO.P,J1,4*%
%TO.N,Net-(J1-Pad4)*%
X106680000Y-108585000D03*
%TO.P,J1,3*%
%TO.N,Net-(C1-Pad2)*%
X106680000Y-111125000D03*
%TO.P,J1,2*%
%TO.N,Net-(J1-Pad2)*%
X106680000Y-113665000D03*
D18*
%TO.P,J1,1*%
%TO.N,/ISO_GND*%
X106680000Y-116205000D03*
%TD*%
%TO.P,D6,2*%
%TO.N,Net-(D6-Pad2)*%
%TA.AperFunction,SMDPad,CuDef*%
G36*
G01*
X125492500Y-56230000D02*
X125967500Y-56230000D01*
G75*
G02*
X126205000Y-56467500I0J-237500D01*
G01*
X126205000Y-57042500D01*
G75*
G02*
X125967500Y-57280000I-237500J0D01*
G01*
X125492500Y-57280000D01*
G75*
G02*
X125255000Y-57042500I0J237500D01*
G01*
X125255000Y-56467500D01*
G75*
G02*
X125492500Y-56230000I237500J0D01*
G01*
G37*
%TD.AperFunction*%
%TO.P,D6,1*%
%TO.N,/~HALT~*%
%TA.AperFunction,SMDPad,CuDef*%
G36*
G01*
X125492500Y-54480000D02*
X125967500Y-54480000D01*
G75*
G02*
X126205000Y-54717500I0J-237500D01*
G01*
X126205000Y-55292500D01*
G75*
G02*
X125967500Y-55530000I-237500J0D01*
G01*
X125492500Y-55530000D01*
G75*
G02*
X125255000Y-55292500I0J237500D01*
G01*
X125255000Y-54717500D01*
G75*
G02*
X125492500Y-54480000I237500J0D01*
G01*
G37*
%TD.AperFunction*%
%TD*%
%TO.P,D4,2*%
%TO.N,Net-(D4-Pad2)*%
%TA.AperFunction,SMDPad,CuDef*%
G36*
G01*
X115967500Y-56230000D02*
X116442500Y-56230000D01*
G75*
G02*
X116680000Y-56467500I0J-237500D01*
G01*
X116680000Y-57042500D01*
G75*
G02*
X116442500Y-57280000I-237500J0D01*
G01*
X115967500Y-57280000D01*
G75*
G02*
X115730000Y-57042500I0J237500D01*
G01*
X115730000Y-56467500D01*
G75*
G02*
X115967500Y-56230000I237500J0D01*
G01*
G37*
%TD.AperFunction*%
%TO.P,D4,1*%
%TO.N,/~BUSRQ~*%
%TA.AperFunction,SMDPad,CuDef*%
G36*
G01*
X115967500Y-54480000D02*
X116442500Y-54480000D01*
G75*
G02*
X116680000Y-54717500I0J-237500D01*
G01*
X116680000Y-55292500D01*
G75*
G02*
X116442500Y-55530000I-237500J0D01*
G01*
X115967500Y-55530000D01*
G75*
G02*
X115730000Y-55292500I0J237500D01*
G01*
X115730000Y-54717500D01*
G75*
G02*
X115967500Y-54480000I237500J0D01*
G01*
G37*
%TD.AperFunction*%
%TD*%
%TO.P,D3,2*%
%TO.N,Net-(D3-Pad2)*%
%TA.AperFunction,SMDPad,CuDef*%
G36*
G01*
X105807500Y-56230000D02*
X106282500Y-56230000D01*
G75*
G02*
X106520000Y-56467500I0J-237500D01*
G01*
X106520000Y-57042500D01*
G75*
G02*
X106282500Y-57280000I-237500J0D01*
G01*
X105807500Y-57280000D01*
G75*
G02*
X105570000Y-57042500I0J237500D01*
G01*
X105570000Y-56467500D01*
G75*
G02*
X105807500Y-56230000I237500J0D01*
G01*
G37*
%TD.AperFunction*%
%TO.P,D3,1*%
%TO.N,GND*%
%TA.AperFunction,SMDPad,CuDef*%
G36*
G01*
X105807500Y-54480000D02*
X106282500Y-54480000D01*
G75*
G02*
X106520000Y-54717500I0J-237500D01*
G01*
X106520000Y-55292500D01*
G75*
G02*
X106282500Y-55530000I-237500J0D01*
G01*
X105807500Y-55530000D01*
G75*
G02*
X105570000Y-55292500I0J237500D01*
G01*
X105570000Y-54717500D01*
G75*
G02*
X105807500Y-54480000I237500J0D01*
G01*
G37*
%TD.AperFunction*%
%TD*%
%TO.P,D2,2*%
%TO.N,Net-(D2-Pad2)*%
%TA.AperFunction,SMDPad,CuDef*%
G36*
G01*
X110887500Y-56230000D02*
X111362500Y-56230000D01*
G75*
G02*
X111600000Y-56467500I0J-237500D01*
G01*
X111600000Y-57042500D01*
G75*
G02*
X111362500Y-57280000I-237500J0D01*
G01*
X110887500Y-57280000D01*
G75*
G02*
X110650000Y-57042500I0J237500D01*
G01*
X110650000Y-56467500D01*
G75*
G02*
X110887500Y-56230000I237500J0D01*
G01*
G37*
%TD.AperFunction*%
%TO.P,D2,1*%
%TO.N,GND*%
%TA.AperFunction,SMDPad,CuDef*%
G36*
G01*
X110887500Y-54480000D02*
X111362500Y-54480000D01*
G75*
G02*
X111600000Y-54717500I0J-237500D01*
G01*
X111600000Y-55292500D01*
G75*
G02*
X111362500Y-55530000I-237500J0D01*
G01*
X110887500Y-55530000D01*
G75*
G02*
X110650000Y-55292500I0J237500D01*
G01*
X110650000Y-54717500D01*
G75*
G02*
X110887500Y-54480000I237500J0D01*
G01*
G37*
%TD.AperFunction*%
%TD*%
%TO.P,D1,2*%
%TO.N,Net-(D1-Pad2)*%
%TA.AperFunction,SMDPad,CuDef*%
G36*
G01*
X111362500Y-116490000D02*
X110887500Y-116490000D01*
G75*
G02*
X110650000Y-116252500I0J237500D01*
G01*
X110650000Y-115677500D01*
G75*
G02*
X110887500Y-115440000I237500J0D01*
G01*
X111362500Y-115440000D01*
G75*
G02*
X111600000Y-115677500I0J-237500D01*
G01*
X111600000Y-116252500D01*
G75*
G02*
X111362500Y-116490000I-237500J0D01*
G01*
G37*
%TD.AperFunction*%
%TO.P,D1,1*%
%TO.N,/ISO_GND*%
%TA.AperFunction,SMDPad,CuDef*%
G36*
G01*
X111362500Y-118240000D02*
X110887500Y-118240000D01*
G75*
G02*
X110650000Y-118002500I0J237500D01*
G01*
X110650000Y-117427500D01*
G75*
G02*
X110887500Y-117190000I237500J0D01*
G01*
X111362500Y-117190000D01*
G75*
G02*
X111600000Y-117427500I0J-237500D01*
G01*
X111600000Y-118002500D01*
G75*
G02*
X111362500Y-118240000I-237500J0D01*
G01*
G37*
%TD.AperFunction*%
%TD*%
D19*
%TO.P,Y1,2*%
%TO.N,Net-(C3-Pad1)*%
X120872500Y-102870000D03*
%TO.P,Y1,1*%
%TO.N,Net-(C4-Pad1)*%
X115347500Y-102870000D03*
%TD*%
%TO.P,U1,8*%
%TO.N,+5V*%
%TA.AperFunction,SMDPad,CuDef*%
G36*
G01*
X119610000Y-111275000D02*
X119610000Y-110975000D01*
G75*
G02*
X119760000Y-110825000I150000J0D01*
G01*
X121410000Y-110825000D01*
G75*
G02*
X121560000Y-110975000I0J-150000D01*
G01*
X121560000Y-111275000D01*
G75*
G02*
X121410000Y-111425000I-150000J0D01*
G01*
X119760000Y-111425000D01*
G75*
G02*
X119610000Y-111275000I0J150000D01*
G01*
G37*
%TD.AperFunction*%
%TO.P,U1,7*%
%TO.N,/TXD1*%
%TA.AperFunction,SMDPad,CuDef*%
G36*
G01*
X119610000Y-112545000D02*
X119610000Y-112245000D01*
G75*
G02*
X119760000Y-112095000I150000J0D01*
G01*
X121410000Y-112095000D01*
G75*
G02*
X121560000Y-112245000I0J-150000D01*
G01*
X121560000Y-112545000D01*
G75*
G02*
X121410000Y-112695000I-150000J0D01*
G01*
X119760000Y-112695000D01*
G75*
G02*
X119610000Y-112545000I0J150000D01*
G01*
G37*
%TD.AperFunction*%
%TO.P,U1,6*%
%TO.N,/RXD1*%
%TA.AperFunction,SMDPad,CuDef*%
G36*
G01*
X119610000Y-113815000D02*
X119610000Y-113515000D01*
G75*
G02*
X119760000Y-113365000I150000J0D01*
G01*
X121410000Y-113365000D01*
G75*
G02*
X121560000Y-113515000I0J-150000D01*
G01*
X121560000Y-113815000D01*
G75*
G02*
X121410000Y-113965000I-150000J0D01*
G01*
X119760000Y-113965000D01*
G75*
G02*
X119610000Y-113815000I0J150000D01*
G01*
G37*
%TD.AperFunction*%
%TO.P,U1,5*%
%TO.N,GND*%
%TA.AperFunction,SMDPad,CuDef*%
G36*
G01*
X119610000Y-115085000D02*
X119610000Y-114785000D01*
G75*
G02*
X119760000Y-114635000I150000J0D01*
G01*
X121410000Y-114635000D01*
G75*
G02*
X121560000Y-114785000I0J-150000D01*
G01*
X121560000Y-115085000D01*
G75*
G02*
X121410000Y-115235000I-150000J0D01*
G01*
X119760000Y-115235000D01*
G75*
G02*
X119610000Y-115085000I0J150000D01*
G01*
G37*
%TD.AperFunction*%
%TO.P,U1,4*%
%TO.N,/ISO_GND*%
%TA.AperFunction,SMDPad,CuDef*%
G36*
G01*
X114660000Y-115085000D02*
X114660000Y-114785000D01*
G75*
G02*
X114810000Y-114635000I150000J0D01*
G01*
X116460000Y-114635000D01*
G75*
G02*
X116610000Y-114785000I0J-150000D01*
G01*
X116610000Y-115085000D01*
G75*
G02*
X116460000Y-115235000I-150000J0D01*
G01*
X114810000Y-115235000D01*
G75*
G02*
X114660000Y-115085000I0J150000D01*
G01*
G37*
%TD.AperFunction*%
%TO.P,U1,3*%
%TO.N,Net-(J1-Pad4)*%
%TA.AperFunction,SMDPad,CuDef*%
G36*
G01*
X114660000Y-113815000D02*
X114660000Y-113515000D01*
G75*
G02*
X114810000Y-113365000I150000J0D01*
G01*
X116460000Y-113365000D01*
G75*
G02*
X116610000Y-113515000I0J-150000D01*
G01*
X116610000Y-113815000D01*
G75*
G02*
X116460000Y-113965000I-150000J0D01*
G01*
X114810000Y-113965000D01*
G75*
G02*
X114660000Y-113815000I0J150000D01*
G01*
G37*
%TD.AperFunction*%
%TO.P,U1,2*%
%TO.N,Net-(J1-Pad5)*%
%TA.AperFunction,SMDPad,CuDef*%
G36*
G01*
X114660000Y-112545000D02*
X114660000Y-112245000D01*
G75*
G02*
X114810000Y-112095000I150000J0D01*
G01*
X116460000Y-112095000D01*
G75*
G02*
X116610000Y-112245000I0J-150000D01*
G01*
X116610000Y-112545000D01*
G75*
G02*
X116460000Y-112695000I-150000J0D01*
G01*
X114810000Y-112695000D01*
G75*
G02*
X114660000Y-112545000I0J150000D01*
G01*
G37*
%TD.AperFunction*%
%TO.P,U1,1*%
%TO.N,Net-(C1-Pad2)*%
%TA.AperFunction,SMDPad,CuDef*%
G36*
G01*
X114660000Y-111275000D02*
X114660000Y-110975000D01*
G75*
G02*
X114810000Y-110825000I150000J0D01*
G01*
X116460000Y-110825000D01*
G75*
G02*
X116610000Y-110975000I0J-150000D01*
G01*
X116610000Y-111275000D01*
G75*
G02*
X116460000Y-111425000I-150000J0D01*
G01*
X114810000Y-111425000D01*
G75*
G02*
X114660000Y-111275000I0J150000D01*
G01*
G37*
%TD.AperFunction*%
%TD*%
D20*
%TO.N,GND*%
X120650000Y-82550000D03*
X113030000Y-82550000D03*
X116205000Y-95250000D03*
X118110000Y-106680000D03*
X130175000Y-74295000D03*
X124460000Y-114300000D03*
X112395000Y-54610000D03*
X107315000Y-54610000D03*
X120650000Y-117475000D03*
%TO.N,/~IORQ~*%
X126303151Y-107315000D03*
X130810000Y-116840000D03*
X133350000Y-116840000D03*
X123825000Y-106680000D03*
%TO.N,/~RD~*%
X128270000Y-114300000D03*
X133350000Y-114300000D03*
%TO.N,/~WR~*%
X128203162Y-111760000D03*
X132715000Y-111760000D03*
%TO.N,/~M1~*%
X128203162Y-109220000D03*
X132715000Y-109220000D03*
%TO.N,/~RESET~*%
X128203162Y-100076000D03*
X132354990Y-100330000D03*
%TO.N,/~WAIT~*%
X128203162Y-97520003D03*
X133350000Y-97520003D03*
X134530000Y-96520000D03*
%TO.N,/A1*%
X131953000Y-90551000D03*
X132280148Y-85079116D03*
%TO.N,/~INT~*%
X128203162Y-96520000D03*
X132842000Y-96520000D03*
X132842000Y-94234000D03*
%TO.N,/A2*%
X131170540Y-89895540D03*
X131545884Y-84354116D03*
%TO.N,/A3*%
X130463432Y-89188432D03*
X130593384Y-83401616D03*
%TO.N,/~NMI~*%
X140970000Y-87630000D03*
%TO.N,/A4*%
X129756324Y-88481324D03*
X129810000Y-82449116D03*
%TO.N,/RSVD0*%
X142330000Y-85090000D03*
%TO.N,/A5*%
X129049216Y-87774216D03*
X129085000Y-81460000D03*
%TO.N,/A6*%
X128342108Y-87067108D03*
X128360000Y-80735000D03*
%TO.N,/A7*%
X127635000Y-86360000D03*
X127635000Y-80010000D03*
%TO.N,/A8*%
X124007009Y-77922991D03*
X114585000Y-77693229D03*
%TO.N,/~MREQ~*%
X142965000Y-77470000D03*
X141605000Y-107950000D03*
X134620000Y-106680000D03*
X131454972Y-105410000D03*
X124460000Y-105410000D03*
%TO.N,/A9*%
X115385000Y-76918330D03*
X121614170Y-77197991D03*
%TO.N,/~HALT~*%
X123825000Y-83185000D03*
X116205000Y-87630000D03*
X114300000Y-87630000D03*
X142965000Y-71755000D03*
X125730000Y-76200000D03*
X128270000Y-60325000D03*
X123825000Y-59690000D03*
%TO.N,/A10*%
X116185000Y-76200000D03*
X120835000Y-76472991D03*
%TO.N,/~BUSAK~*%
X129540000Y-71120000D03*
X122481489Y-65331489D03*
X120650000Y-64135000D03*
X121505141Y-66260141D03*
%TO.N,/A11*%
X116985000Y-75309867D03*
X121276529Y-75575743D03*
%TO.N,/~BUSRQ~*%
X130175000Y-68580000D03*
X124264142Y-64574142D03*
X119209130Y-65869130D03*
X121089142Y-67749142D03*
%TO.N,/A12*%
X117785000Y-74496361D03*
X121895698Y-74790483D03*
%TO.N,/A13*%
X118585000Y-73732108D03*
X121992108Y-73732108D03*
%TO.N,/RSVD1*%
X125534142Y-63939142D03*
X130793649Y-64063004D03*
%TO.N,/A14*%
X119380000Y-73025000D03*
X121285000Y-73025000D03*
X135059847Y-62034847D03*
%TO.N,/RSVD2*%
X126804142Y-62669142D03*
X131640153Y-63060153D03*
%TO.N,+5V*%
X134620000Y-78740000D03*
X107315000Y-69215000D03*
X104524944Y-80010000D03*
X110490000Y-80010000D03*
X116205000Y-62230000D03*
X121285000Y-62230000D03*
X107315000Y-62230000D03*
X107315000Y-60325000D03*
%TO.N,/PDO*%
X107752732Y-75367733D03*
X112395000Y-73799976D03*
X112395000Y-71755000D03*
X108824448Y-77619448D03*
%TO.N,/PDI*%
X110050153Y-77030153D03*
X109855000Y-71755000D03*
%TO.N,/~RST~*%
X107315000Y-90170000D03*
X112395000Y-90170000D03*
%TO.N,/RXD1*%
X121920000Y-113665000D03*
X125095000Y-113030000D03*
%TO.N,/TXD1*%
X121920000Y-112395000D03*
X125095000Y-111760000D03*
%TO.N,Net-(C1-Pad2)*%
X109855000Y-111125000D03*
%TO.N,Net-(J1-Pad5)*%
X114300000Y-112395000D03*
X111760000Y-112395000D03*
%TO.N,Net-(J1-Pad4)*%
X114300000Y-113665000D03*
X111760000Y-113665000D03*
%TO.N,/ISO_GND*%
X113030000Y-114935000D03*
X109904898Y-116790102D03*
%TD*%
D21*
%TO.N,GND*%
X120910000Y-78875000D02*
X121045000Y-78740000D01*
X120910000Y-81200000D02*
X120910000Y-78875000D01*
X120910000Y-82290000D02*
X120650000Y-82550000D01*
X120910000Y-81200000D02*
X120910000Y-82290000D01*
X112910000Y-82430000D02*
X113030000Y-82550000D01*
X112910000Y-81200000D02*
X112910000Y-82430000D01*
X113270000Y-78740000D02*
X113270000Y-79770000D01*
X112910000Y-80130000D02*
X112910000Y-81200000D01*
X113270000Y-79770000D02*
X112910000Y-80130000D01*
X116110000Y-95345000D02*
X116205000Y-95250000D01*
X116110000Y-96600000D02*
X116110000Y-95345000D01*
X116110000Y-99395000D02*
X115810000Y-99695000D01*
X116110000Y-96600000D02*
X116110000Y-99395000D01*
D22*
X116445000Y-106680000D02*
X118110000Y-106680000D01*
X119775000Y-106680000D02*
X118110000Y-106680000D01*
D23*
X130175000Y-75347500D02*
X130175000Y-74295000D01*
D21*
X122160000Y-114935000D02*
X123190000Y-113905000D01*
X120585000Y-114935000D02*
X122160000Y-114935000D01*
X124065000Y-113905000D02*
X124460000Y-114300000D01*
X123190000Y-113905000D02*
X124065000Y-113905000D01*
D22*
X112000000Y-55005000D02*
X112395000Y-54610000D01*
X111125000Y-55005000D02*
X112000000Y-55005000D01*
X106920000Y-55005000D02*
X107315000Y-54610000D01*
X106045000Y-55005000D02*
X106920000Y-55005000D01*
D21*
X119620000Y-117475000D02*
X120650000Y-117475000D01*
D22*
%TO.N,/D0*%
X128928162Y-94003162D02*
X128928162Y-113688162D01*
X128928162Y-113688162D02*
X133350000Y-118110000D01*
X138430000Y-118110000D02*
X139700000Y-119380000D01*
X133350000Y-118110000D02*
X138430000Y-118110000D01*
X125810000Y-93300000D02*
X128225000Y-93300000D01*
X128225000Y-93300000D02*
X128928162Y-94003162D01*
%TO.N,/D1*%
X138430000Y-115570000D02*
X139700000Y-116840000D01*
X133350000Y-115570000D02*
X138430000Y-115570000D01*
X129378172Y-111598172D02*
X133350000Y-115570000D01*
X129378172Y-93726000D02*
X129378172Y-111598172D01*
X128152172Y-92500000D02*
X129378172Y-93726000D01*
X125810000Y-92500000D02*
X128152172Y-92500000D01*
%TO.N,/~IORQ~*%
X129736998Y-116840000D02*
X130810000Y-116840000D01*
X126303151Y-113406153D02*
X129736998Y-116840000D01*
X126303151Y-107315000D02*
X126303151Y-113406153D01*
X133350000Y-116840000D02*
X137160000Y-116840000D01*
X118510000Y-97600000D02*
X118510000Y-96600000D01*
X122254999Y-101344999D02*
X118510000Y-97600000D01*
X122795001Y-101344999D02*
X122254999Y-101344999D01*
X123190000Y-101739998D02*
X122795001Y-101344999D01*
X123190000Y-106045000D02*
X123190000Y-101739998D01*
X123825000Y-106680000D02*
X123190000Y-106045000D01*
%TO.N,/D2*%
X138430000Y-113030000D02*
X139700000Y-114300000D01*
X127988582Y-91700000D02*
X129828182Y-93539600D01*
X129828182Y-93539600D02*
X129828182Y-110143182D01*
X132715000Y-113030000D02*
X138430000Y-113030000D01*
X129828182Y-110143182D02*
X132715000Y-113030000D01*
X125810000Y-91700000D02*
X127988582Y-91700000D01*
%TO.N,/~RD~*%
X121710000Y-96600000D02*
X121710000Y-97581410D01*
X127028151Y-113058151D02*
X128270000Y-114300000D01*
X127028151Y-102899561D02*
X127028151Y-113058151D01*
X121710000Y-97581410D02*
X127028151Y-102899561D01*
X133350000Y-114300000D02*
X137160000Y-114300000D01*
%TO.N,/D3*%
X132715000Y-110490000D02*
X138430000Y-110490000D01*
X130279962Y-108054962D02*
X132715000Y-110490000D01*
X138430000Y-110490000D02*
X139700000Y-111760000D01*
X130279962Y-93345000D02*
X130279962Y-108054962D01*
X127834962Y-90900000D02*
X130279962Y-93345000D01*
X125810000Y-90900000D02*
X127834962Y-90900000D01*
%TO.N,/~WR~*%
X122510000Y-96600000D02*
X122510000Y-97745000D01*
X127478161Y-111034999D02*
X128203162Y-111760000D01*
X127478161Y-102713161D02*
X127478161Y-111034999D01*
X122510000Y-97745000D02*
X127478161Y-102713161D01*
X132715000Y-111760000D02*
X137160000Y-111760000D01*
%TO.N,/D4*%
X138430000Y-107950000D02*
X139700000Y-109220000D01*
X132715000Y-107950000D02*
X138430000Y-107950000D01*
X130729972Y-105964972D02*
X132715000Y-107950000D01*
X130729972Y-93091000D02*
X130729972Y-105964972D01*
X127738972Y-90100000D02*
X130729972Y-93091000D01*
X125810000Y-90100000D02*
X127738972Y-90100000D01*
%TO.N,/~M1~*%
X128203162Y-102493162D02*
X128203162Y-109220000D01*
X123310000Y-97600000D02*
X128203162Y-102493162D01*
X123310000Y-96600000D02*
X123310000Y-97600000D01*
X132715000Y-109220000D02*
X137160000Y-109220000D01*
%TO.N,/D5*%
X133350000Y-105410000D02*
X138430000Y-105410000D01*
X138430000Y-105410000D02*
X139700000Y-106680000D01*
X131179982Y-92837000D02*
X131179982Y-103239982D01*
X131179982Y-103239982D02*
X133350000Y-105410000D01*
X127642982Y-89300000D02*
X131179982Y-92837000D01*
X125810000Y-89300000D02*
X127642982Y-89300000D01*
%TO.N,/D6*%
X138430000Y-102870000D02*
X139700000Y-104140000D01*
X133444999Y-102870000D02*
X138430000Y-102870000D01*
X131629991Y-101149991D02*
X133444999Y-102870000D01*
X131629990Y-92583000D02*
X131629991Y-101149991D01*
X127546990Y-88500000D02*
X131629990Y-92583000D01*
X125810000Y-88500000D02*
X127546990Y-88500000D01*
%TO.N,/D7*%
X138430000Y-100330000D02*
X139700000Y-101600000D01*
X134150998Y-100330000D02*
X138430000Y-100330000D01*
X132080000Y-98259002D02*
X134150998Y-100330000D01*
X132080000Y-92202000D02*
X132080000Y-98259002D01*
X127578000Y-87700000D02*
X132080000Y-92202000D01*
X125810000Y-87700000D02*
X127578000Y-87700000D01*
%TO.N,/~RESET~*%
X124727162Y-96600000D02*
X128203162Y-100076000D01*
X124110000Y-96600000D02*
X124727162Y-96600000D01*
X133624990Y-101600000D02*
X137160000Y-101600000D01*
X132354990Y-100330000D02*
X133624990Y-101600000D01*
%TO.N,/A0*%
X138430000Y-97790000D02*
X139700000Y-96520000D01*
X136525000Y-97790000D02*
X138430000Y-97790000D01*
X132842000Y-92837000D02*
X135255000Y-95250000D01*
X135255000Y-96520000D02*
X136525000Y-97790000D01*
X132842000Y-86675538D02*
X132842000Y-92837000D01*
X123035011Y-79674989D02*
X125841452Y-79674990D01*
X135255000Y-95250000D02*
X135255000Y-96520000D01*
X125841452Y-79674990D02*
X132842000Y-86675538D01*
X122510000Y-80200000D02*
X123035011Y-79674989D01*
X122510000Y-81200000D02*
X122510000Y-80200000D01*
%TO.N,/~WAIT~*%
X126810000Y-94900000D02*
X127000000Y-95090000D01*
X125810000Y-94900000D02*
X126810000Y-94900000D01*
X128130163Y-97520003D02*
X128203162Y-97520003D01*
X127000000Y-96389840D02*
X128130163Y-97520003D01*
X127000000Y-95090000D02*
X127000000Y-96389840D01*
X133529997Y-97520003D02*
X134530000Y-96520000D01*
X133350000Y-97520003D02*
X133529997Y-97520003D01*
%TO.N,/A1*%
X125655051Y-80124999D02*
X131953000Y-86422948D01*
X131953000Y-86422948D02*
X131953000Y-90551000D01*
X123385001Y-80124999D02*
X125655051Y-80124999D01*
X123310000Y-80200000D02*
X123385001Y-80124999D01*
X123310000Y-81200000D02*
X123310000Y-80200000D01*
X133567001Y-86365969D02*
X133567001Y-92292001D01*
X132280148Y-85079116D02*
X133567001Y-86365969D01*
X133567001Y-92292001D02*
X136525000Y-95250000D01*
X138430000Y-95250000D02*
X139700000Y-93980000D01*
X136525000Y-95250000D02*
X138430000Y-95250000D01*
%TO.N,/~INT~*%
X128203162Y-95183162D02*
X128203162Y-96520000D01*
X127120000Y-94100000D02*
X128203162Y-95183162D01*
X125810000Y-94100000D02*
X127120000Y-94100000D01*
X132842000Y-94234000D02*
X132842000Y-96520000D01*
%TO.N,/A2*%
X131188433Y-89877647D02*
X131170540Y-89895540D01*
X131188433Y-86294791D02*
X131188433Y-89877647D01*
X126093642Y-81200000D02*
X131188433Y-86294791D01*
X124110000Y-81200000D02*
X126093642Y-81200000D01*
X131545884Y-84354116D02*
X132611296Y-84354116D01*
X134354980Y-86097800D02*
X134354980Y-91174980D01*
X132611296Y-84354116D02*
X134354980Y-86097800D01*
X134354980Y-91174980D02*
X135890000Y-92710000D01*
X138430000Y-92710000D02*
X139700000Y-91440000D01*
X135890000Y-92710000D02*
X138430000Y-92710000D01*
%TO.N,/A3*%
X130481325Y-89170539D02*
X130463432Y-89188432D01*
X127157232Y-82900000D02*
X130481325Y-86224093D01*
X130481325Y-86224093D02*
X130481325Y-89170539D01*
X125810000Y-82900000D02*
X127157232Y-82900000D01*
X130593384Y-83401616D02*
X132295206Y-83401616D01*
X134804990Y-85911400D02*
X134804990Y-89084990D01*
X132295206Y-83401616D02*
X134804990Y-85911400D01*
X134804990Y-89084990D02*
X135890000Y-90170000D01*
X138430000Y-90170000D02*
X139700000Y-88900000D01*
X135890000Y-90170000D02*
X138430000Y-90170000D01*
%TO.N,/~NMI~*%
X135255000Y-59055000D02*
X135255000Y-57785000D01*
X110410000Y-82900000D02*
X109764999Y-82254999D01*
X109855000Y-79375000D02*
X109855000Y-78740000D01*
X133350705Y-60959295D02*
X135255000Y-59055000D01*
X130175705Y-60959295D02*
X133350705Y-60959295D01*
X140970000Y-57150000D02*
X141605000Y-57785000D01*
X119380000Y-71120000D02*
X120015000Y-71120000D01*
X110839846Y-77755154D02*
X112744846Y-77755154D01*
X109855000Y-78740000D02*
X110839846Y-77755154D01*
X141605000Y-86995000D02*
X140970000Y-87630000D01*
X120015000Y-71120000D02*
X130175705Y-60959295D01*
X141605000Y-57785000D02*
X141605000Y-86995000D01*
X135890000Y-57150000D02*
X140970000Y-57150000D01*
X109764999Y-79465001D02*
X109855000Y-79375000D01*
X135255000Y-57785000D02*
X135890000Y-57150000D01*
X109764999Y-82254999D02*
X109764999Y-79465001D01*
X112744846Y-77755154D02*
X119380000Y-71120000D01*
%TO.N,/A4*%
X129774217Y-86153395D02*
X129774217Y-88463431D01*
X127320822Y-83700000D02*
X129774217Y-86153395D01*
X129774217Y-88463431D02*
X129756324Y-88481324D01*
X125810000Y-83700000D02*
X127320822Y-83700000D01*
X129810000Y-82449116D02*
X131979116Y-82449116D01*
X131979116Y-82449116D02*
X135255000Y-85725000D01*
X135255000Y-85725000D02*
X135255000Y-86360000D01*
X135255000Y-86360000D02*
X136525000Y-87630000D01*
X138430000Y-87630000D02*
X139700000Y-86360000D01*
X136525000Y-87630000D02*
X138430000Y-87630000D01*
%TO.N,/RSVD0*%
X107950000Y-85090000D02*
X108161780Y-85301780D01*
X107950000Y-77468590D02*
X107950000Y-85090000D01*
X109668599Y-75749991D02*
X107950000Y-77468590D01*
X119378590Y-70485000D02*
X114113600Y-75749990D01*
X120013590Y-70485000D02*
X119378590Y-70485000D01*
X142330000Y-85090000D02*
X142330000Y-84545000D01*
X129989304Y-60509286D02*
X120013590Y-70485000D01*
X133164305Y-60509285D02*
X129989304Y-60509286D01*
X110063220Y-85301780D02*
X110065000Y-85300000D01*
X142240000Y-57783590D02*
X140971410Y-56515000D01*
X135888590Y-56515000D02*
X134620000Y-57783590D01*
X140971410Y-56515000D02*
X135888590Y-56515000D01*
X134620000Y-59053590D02*
X133164305Y-60509285D01*
X108161780Y-85301780D02*
X110063220Y-85301780D01*
X114113600Y-75749990D02*
X109668599Y-75749991D01*
X142240000Y-84455000D02*
X142240000Y-57783590D01*
X110065000Y-85300000D02*
X110410000Y-85300000D01*
X134620000Y-57783590D02*
X134620000Y-59053590D01*
X142330000Y-84545000D02*
X142240000Y-84455000D01*
%TO.N,/A5*%
X129067109Y-87756323D02*
X129049216Y-87774216D01*
X129067109Y-86082697D02*
X129067109Y-87756323D01*
X127484412Y-84500000D02*
X129067109Y-86082697D01*
X125810000Y-84500000D02*
X127484412Y-84500000D01*
X129085000Y-81460000D02*
X132260000Y-81460000D01*
X132260000Y-81460000D02*
X135890000Y-85090000D01*
X135890000Y-85090000D02*
X138430000Y-85090000D01*
X138430000Y-85090000D02*
X139700000Y-83820000D01*
%TO.N,/A6*%
X128360001Y-86011999D02*
X128360001Y-87049215D01*
X127648002Y-85300000D02*
X128360001Y-86011999D01*
X128360001Y-87049215D02*
X128342108Y-87067108D01*
X125810000Y-85300000D02*
X127648002Y-85300000D01*
X128360000Y-80735000D02*
X134075000Y-80735000D01*
X138524999Y-82455001D02*
X139700000Y-81280000D01*
X135795001Y-82455001D02*
X138524999Y-82455001D01*
X134075000Y-80735000D02*
X135795001Y-82455001D01*
%TO.N,/A7*%
X127375000Y-86100000D02*
X127635000Y-86360000D01*
X125810000Y-86100000D02*
X127375000Y-86100000D01*
X127635000Y-80010000D02*
X138430000Y-80010000D01*
X138430000Y-80010000D02*
X139700000Y-78740000D01*
%TO.N,/A8*%
X114510000Y-77768229D02*
X114585000Y-77693229D01*
X114510000Y-81200000D02*
X114510000Y-77768229D01*
X138430000Y-77470000D02*
X139700000Y-76200000D01*
X133350000Y-77470000D02*
X138430000Y-77470000D01*
X132080000Y-76200000D02*
X133350000Y-77470000D01*
X132080000Y-74295000D02*
X132080000Y-76200000D01*
X131348590Y-73563590D02*
X132080000Y-74295000D01*
X128270000Y-74295000D02*
X129001410Y-73563590D01*
X129001410Y-73563590D02*
X131348590Y-73563590D01*
X126182991Y-77922991D02*
X128270000Y-75835982D01*
X128270000Y-75835982D02*
X128270000Y-74295000D01*
X124007009Y-77922991D02*
X126182991Y-77922991D01*
%TO.N,/~MREQ~*%
X142965000Y-77470000D02*
X142965000Y-78015000D01*
X143055001Y-78105001D02*
X143055001Y-88084999D01*
X142965000Y-78015000D02*
X143055001Y-78105001D01*
X143055001Y-88084999D02*
X141605000Y-89535000D01*
X141605000Y-89535000D02*
X141605000Y-107950000D01*
X134620000Y-106680000D02*
X133350000Y-106680000D01*
X132724972Y-106680000D02*
X131454972Y-105410000D01*
X133350000Y-106680000D02*
X132724972Y-106680000D01*
X123640010Y-104590010D02*
X124460000Y-105410000D01*
X123640010Y-101553598D02*
X123640010Y-104590010D01*
X122981402Y-100894990D02*
X123640010Y-101553598D01*
X119310000Y-97600000D02*
X122604989Y-100894989D01*
X122604989Y-100894989D02*
X122981402Y-100894990D01*
X119310000Y-96600000D02*
X119310000Y-97600000D01*
%TO.N,/A9*%
X115310000Y-76993330D02*
X115385000Y-76918330D01*
X115310000Y-81200000D02*
X115310000Y-76993330D01*
X138430000Y-74930000D02*
X139700000Y-73660000D01*
X135253590Y-74928590D02*
X135255000Y-74930000D01*
X133350000Y-74928590D02*
X135253590Y-74928590D01*
X135255000Y-74930000D02*
X138430000Y-74930000D01*
X131534991Y-73113581D02*
X133350000Y-74928590D01*
X121614170Y-77197991D02*
X126002009Y-77197991D01*
X127819991Y-74108599D02*
X128815010Y-73113580D01*
X128815010Y-73113580D02*
X131534991Y-73113581D01*
X127819990Y-75380010D02*
X127819991Y-74108599D01*
X126002009Y-77197991D02*
X127819990Y-75380010D01*
%TO.N,/~HALT~*%
X119380000Y-87630000D02*
X116205000Y-87630000D01*
X123825000Y-83185000D02*
X119380000Y-87630000D01*
X114300000Y-87630000D02*
X113030000Y-87630000D01*
X112960000Y-87700000D02*
X110410000Y-87700000D01*
X113030000Y-87630000D02*
X112960000Y-87700000D01*
X128628611Y-72663571D02*
X132988571Y-72663571D01*
X125730000Y-75562182D02*
X128628611Y-72663571D01*
X125730000Y-76200000D02*
X125730000Y-75562182D01*
X133985000Y-73660000D02*
X137160000Y-73660000D01*
X132988571Y-72663571D02*
X133985000Y-73660000D01*
X132977903Y-60059277D02*
X128905000Y-60059277D01*
X133985000Y-59052180D02*
X132977903Y-60059277D01*
X133985000Y-57782180D02*
X133985000Y-59052180D01*
X141157811Y-56064991D02*
X135702190Y-56064990D01*
X135702190Y-56064990D02*
X133985000Y-57782180D01*
X142965000Y-71755000D02*
X142690010Y-71480010D01*
X142690010Y-71480010D02*
X142690010Y-57597190D01*
X142690010Y-57597190D02*
X141157811Y-56064991D01*
X128535723Y-60059277D02*
X128270000Y-60325000D01*
X128905000Y-60059277D02*
X128535723Y-60059277D01*
X123825000Y-59690000D02*
X123825000Y-55880000D01*
X125730000Y-55005000D02*
X124065000Y-55005000D01*
X123825000Y-55245000D02*
X123825000Y-55880000D01*
X124065000Y-55005000D02*
X123825000Y-55245000D01*
%TO.N,/A10*%
X116110000Y-76275000D02*
X116185000Y-76200000D01*
X116110000Y-81200000D02*
X116110000Y-76275000D01*
X138850001Y-71969999D02*
X139700000Y-71120000D01*
X138430000Y-72390000D02*
X138850001Y-71969999D01*
X120835000Y-76472991D02*
X123749005Y-76472991D01*
X128008435Y-72213561D02*
X134443561Y-72213561D01*
X123749005Y-76472991D02*
X128008435Y-72213561D01*
X134620000Y-72390000D02*
X138430000Y-72390000D01*
X134443561Y-72213561D02*
X134620000Y-72390000D01*
%TO.N,/~BUSAK~*%
X137160000Y-71120000D02*
X129540000Y-71120000D01*
X122481489Y-65331489D02*
X113242987Y-74569991D01*
X108487180Y-86900000D02*
X110410000Y-86900000D01*
X107049981Y-77095791D02*
X107049982Y-85462802D01*
X109575778Y-74569992D02*
X107049981Y-77095791D01*
X107049982Y-85462802D02*
X108487180Y-86900000D01*
X113242987Y-74569991D02*
X109575778Y-74569992D01*
X120650000Y-63500000D02*
X120650000Y-64135000D01*
X120015000Y-62865000D02*
X120650000Y-63500000D01*
X120015000Y-55245000D02*
X120015000Y-62865000D01*
X120255000Y-55005000D02*
X120015000Y-55245000D01*
X121285000Y-55005000D02*
X120255000Y-55005000D01*
%TO.N,/A11*%
X116910000Y-75384867D02*
X116985000Y-75309867D01*
X116910000Y-81200000D02*
X116910000Y-75384867D01*
X121276529Y-75575743D02*
X123814257Y-75575743D01*
X123814257Y-75575743D02*
X129540000Y-69850000D01*
X138430000Y-69850000D02*
X139700000Y-68580000D01*
X129540000Y-69850000D02*
X138430000Y-69850000D01*
%TO.N,/~BUSRQ~*%
X137160000Y-68580000D02*
X130175000Y-68580000D01*
X107499990Y-77282190D02*
X107499991Y-85276401D01*
X109762179Y-75020001D02*
X107499990Y-77282190D01*
X113818283Y-75020001D02*
X109762179Y-75020001D01*
X108323590Y-86100000D02*
X110410000Y-86100000D01*
X107499991Y-85276401D02*
X108323590Y-86100000D01*
X119380000Y-65698260D02*
X119209130Y-65869130D01*
X121089142Y-67749142D02*
X113818283Y-75020001D01*
X124264142Y-64574142D02*
X121089142Y-67749142D01*
X119209130Y-65869130D02*
X119209130Y-63964130D01*
X119209130Y-63964130D02*
X118110000Y-62865000D01*
X118110000Y-62865000D02*
X118110000Y-55880000D01*
X116205000Y-55005000D02*
X117235000Y-55005000D01*
X117235000Y-55005000D02*
X117870000Y-55005000D01*
X117870000Y-55005000D02*
X118110000Y-55245000D01*
X118110000Y-55245000D02*
X118110000Y-55880000D01*
%TO.N,/A12*%
X117710000Y-74571361D02*
X117785000Y-74496361D01*
X117710000Y-81200000D02*
X117710000Y-74571361D01*
X121895698Y-74790483D02*
X122694517Y-74790483D01*
X122694517Y-74790483D02*
X130175000Y-67310000D01*
X138430000Y-67310000D02*
X139700000Y-66040000D01*
X130175000Y-67310000D02*
X138430000Y-67310000D01*
%TO.N,/A13*%
X118510000Y-73807108D02*
X118585000Y-73732108D01*
X118510000Y-81200000D02*
X118510000Y-73807108D01*
X138430000Y-64770000D02*
X139700000Y-63500000D01*
X130954216Y-64770000D02*
X138430000Y-64770000D01*
X121992108Y-73732108D02*
X130954216Y-64770000D01*
%TO.N,/RSVD1*%
X137160000Y-63500000D02*
X133350000Y-63500000D01*
X108820000Y-88500000D02*
X110410000Y-88500000D01*
X106599973Y-86279973D02*
X108820000Y-88500000D01*
X108972487Y-73074976D02*
X106599973Y-75447490D01*
X106599973Y-75447490D02*
X106599973Y-86279973D01*
X113665000Y-73074976D02*
X108972487Y-73074976D01*
X123239976Y-63500000D02*
X113665000Y-73074976D01*
X125095000Y-63500000D02*
X125534142Y-63939142D01*
X132786996Y-64063004D02*
X133350000Y-63500000D01*
X130793649Y-64063004D02*
X132786996Y-64063004D01*
X123239976Y-63500000D02*
X125095000Y-63500000D01*
%TO.N,/A14*%
X119310000Y-73095000D02*
X119380000Y-73025000D01*
X119310000Y-81200000D02*
X119310000Y-73095000D01*
X121285000Y-73025000D02*
X121285000Y-72390000D01*
X121285000Y-72390000D02*
X131445000Y-62230000D01*
X134864694Y-62230000D02*
X135059847Y-62034847D01*
X131445000Y-62230000D02*
X134864694Y-62230000D01*
%TO.N,/RSVD2*%
X113478600Y-72624966D02*
X108786086Y-72624967D01*
X123053575Y-63049991D02*
X113478600Y-72624966D01*
X106149963Y-75261090D02*
X106149964Y-86466374D01*
X124715291Y-63049991D02*
X123053575Y-63049991D01*
X108786086Y-72624967D02*
X106149963Y-75261090D01*
X108983590Y-89300000D02*
X110410000Y-89300000D01*
X106149964Y-86466374D02*
X108983590Y-89300000D01*
X126423293Y-63049991D02*
X126804142Y-62669142D01*
X124715291Y-63049991D02*
X126423293Y-63049991D01*
X131640153Y-63060153D02*
X131835306Y-62865000D01*
X135255000Y-62865000D02*
X137160000Y-60960000D01*
X131835306Y-62865000D02*
X135255000Y-62865000D01*
%TO.N,/A15*%
X135984999Y-59595001D02*
X138524999Y-59595001D01*
X133985000Y-61595000D02*
X135984999Y-59595001D01*
X130810000Y-61595000D02*
X133985000Y-61595000D01*
X138524999Y-59595001D02*
X139700000Y-58420000D01*
X120110000Y-72295000D02*
X130810000Y-61595000D01*
X120110000Y-81200000D02*
X120110000Y-72295000D01*
D21*
%TO.N,+5V*%
X125730000Y-78740000D02*
X122795000Y-78740000D01*
X121710000Y-79825000D02*
X122795000Y-78740000D01*
X121710000Y-81200000D02*
X121710000Y-79825000D01*
X111520000Y-78740000D02*
X111520000Y-79770000D01*
X112110000Y-80360000D02*
X112110000Y-81200000D01*
X111520000Y-79770000D02*
X112110000Y-80360000D01*
X112110000Y-82818738D02*
X112644463Y-83353201D01*
X112110000Y-81200000D02*
X112110000Y-82818738D01*
X121710000Y-82760000D02*
X121710000Y-81200000D01*
X121116799Y-83353201D02*
X121710000Y-82760000D01*
D23*
X134620000Y-78740000D02*
X132080000Y-78740000D01*
D21*
X115310000Y-96600000D02*
X115310000Y-83445000D01*
X115401799Y-83353201D02*
X121116799Y-83353201D01*
X115310000Y-83445000D02*
X115401799Y-83353201D01*
X115310000Y-96600000D02*
X115310000Y-98685000D01*
X114300000Y-99695000D02*
X115310000Y-98685000D01*
X114060000Y-99695000D02*
X114300000Y-99695000D01*
X107315000Y-69215000D02*
X107315000Y-71641590D01*
X107315000Y-71641590D02*
X104721736Y-74234855D01*
X104721736Y-79813208D02*
X104524944Y-80010000D01*
X104721736Y-74234855D02*
X104721736Y-79813208D01*
X111125000Y-78740000D02*
X111520000Y-78740000D01*
X110490000Y-79375000D02*
X111125000Y-78740000D01*
X110490000Y-80010000D02*
X110490000Y-79375000D01*
D22*
X111125000Y-69215000D02*
X111125000Y-68580000D01*
X111854999Y-67850001D02*
X116934999Y-67850001D01*
X111125000Y-68580000D02*
X111854999Y-67850001D01*
X117475000Y-67310000D02*
X117475000Y-65645000D01*
X116934999Y-67850001D02*
X117475000Y-67310000D01*
D23*
X130175000Y-78740000D02*
X125730000Y-78740000D01*
X130175000Y-78322500D02*
X130175000Y-78740000D01*
X132080000Y-78740000D02*
X130175000Y-78740000D01*
D21*
X122160000Y-111125000D02*
X123190000Y-112155000D01*
X120585000Y-111125000D02*
X122160000Y-111125000D01*
X123190000Y-112155000D02*
X123190000Y-110490000D01*
X123190000Y-110490000D02*
X121285000Y-108585000D01*
X121285000Y-108585000D02*
X114300000Y-108585000D01*
X113281799Y-107566799D02*
X113281799Y-100473201D01*
X113281799Y-100473201D02*
X114060000Y-99695000D01*
X114300000Y-108585000D02*
X113281799Y-107566799D01*
D22*
X114131799Y-82621799D02*
X114131799Y-83353201D01*
X113710000Y-81200000D02*
X113710000Y-82200000D01*
X113710000Y-82200000D02*
X114131799Y-82621799D01*
D21*
X114131799Y-83353201D02*
X115401799Y-83353201D01*
X112644463Y-83353201D02*
X114131799Y-83353201D01*
D22*
X116205000Y-60565000D02*
X116205000Y-62230000D01*
X121285000Y-60565000D02*
X121285000Y-62230000D01*
X125730000Y-60565000D02*
X125730000Y-61595000D01*
X125095000Y-62230000D02*
X121285000Y-62230000D01*
X125730000Y-61595000D02*
X125095000Y-62230000D01*
D21*
X107315000Y-63500000D02*
X107315000Y-69215000D01*
X107315000Y-62230000D02*
X107315000Y-63500000D01*
X116205000Y-62230000D02*
X107315000Y-62230000D01*
D22*
X106920000Y-60565000D02*
X106045000Y-60565000D01*
X107315000Y-60325000D02*
X106920000Y-60565000D01*
%TO.N,/PDO*%
X107950269Y-75367733D02*
X109198019Y-74119983D01*
X107752732Y-75367733D02*
X107950269Y-75367733D01*
X109198019Y-74119983D02*
X111935017Y-74119983D01*
X112074993Y-74119983D02*
X112395000Y-73799976D01*
X111935017Y-74119983D02*
X112074993Y-74119983D01*
X112395000Y-71755000D02*
X113665000Y-70485000D01*
X113665000Y-70485000D02*
X113665000Y-69215000D01*
X108400010Y-78043886D02*
X108824448Y-77619448D01*
X108400010Y-83635010D02*
X108400010Y-78043886D01*
X109265000Y-84500000D02*
X108400010Y-83635010D01*
X110410000Y-84500000D02*
X109265000Y-84500000D01*
%TO.N,/SCK*%
X105699954Y-87189954D02*
X105699954Y-74640046D01*
X109410000Y-90900000D02*
X105699954Y-87189954D01*
X110410000Y-90900000D02*
X109410000Y-90900000D01*
X105699954Y-74640046D02*
X108585000Y-71755000D01*
X108585000Y-71755000D02*
X108585000Y-67310000D01*
X110395001Y-65499999D02*
X112489999Y-65499999D01*
X112489999Y-65499999D02*
X113665000Y-66675000D01*
X108585000Y-67310000D02*
X110395001Y-65499999D01*
%TO.N,/PDI*%
X109855000Y-71755000D02*
X109220000Y-71120000D01*
X109220000Y-68580000D02*
X111125000Y-66675000D01*
X109220000Y-71120000D02*
X109220000Y-68580000D01*
X109410000Y-83700000D02*
X108850020Y-83140020D01*
X110410000Y-83700000D02*
X109410000Y-83700000D01*
X110050153Y-77466745D02*
X110050153Y-77030153D01*
X108850020Y-78666878D02*
X110050153Y-77466745D01*
X108850020Y-83140020D02*
X108850020Y-78666878D01*
%TO.N,/~RST~*%
X117235000Y-64135000D02*
X117475000Y-63895000D01*
X113665000Y-64135000D02*
X117235000Y-64135000D01*
X105249945Y-74453645D02*
X105249944Y-86995000D01*
X108134990Y-71568600D02*
X105249945Y-74453645D01*
X108134990Y-64585010D02*
X108134990Y-71568600D01*
X109760001Y-62959999D02*
X108134990Y-64585010D01*
X112489999Y-62959999D02*
X109760001Y-62959999D01*
X113665000Y-64135000D02*
X112489999Y-62959999D01*
X105249944Y-88104944D02*
X107315000Y-90170000D01*
X105249944Y-86995000D02*
X105249944Y-88104944D01*
X114510000Y-94825000D02*
X114510000Y-96600000D01*
X112395000Y-92710000D02*
X114510000Y-94825000D01*
X112395000Y-90170000D02*
X112395000Y-92710000D01*
%TO.N,/RXD1*%
X120110000Y-97387178D02*
X125185001Y-102462179D01*
X120110000Y-96600000D02*
X120110000Y-97387178D01*
X120585000Y-113665000D02*
X121920000Y-113665000D01*
X124369999Y-107208003D02*
X124369999Y-112304999D01*
X125185001Y-106393001D02*
X124369999Y-107208003D01*
X125185001Y-102462179D02*
X125185001Y-106393001D01*
X124369999Y-112304999D02*
X125095000Y-113030000D01*
%TO.N,/TXD1*%
X125730000Y-102370768D02*
X125730000Y-106045000D01*
X120910000Y-97550768D02*
X125730000Y-102370768D01*
X120910000Y-96600000D02*
X120910000Y-97550768D01*
X120585000Y-112395000D02*
X121920000Y-112395000D01*
X125095000Y-107450149D02*
X125730000Y-106815149D01*
X125095000Y-111760000D02*
X125095000Y-107450149D01*
X125730000Y-106815149D02*
X125730000Y-106045000D01*
%TO.N,Net-(D1-Pad2)*%
X111125000Y-115965000D02*
X112790000Y-115965000D01*
X113425000Y-116600000D02*
X112790000Y-115965000D01*
X113425000Y-117475000D02*
X113425000Y-116600000D01*
%TO.N,Net-(D2-Pad2)*%
X111125000Y-58815000D02*
X111125000Y-56755000D01*
%TO.N,Net-(D3-Pad2)*%
X106045000Y-58815000D02*
X106045000Y-56755000D01*
%TO.N,Net-(D4-Pad2)*%
X116205000Y-58815000D02*
X116205000Y-56755000D01*
%TO.N,Net-(D5-Pad2)*%
X121285000Y-58815000D02*
X121285000Y-56755000D01*
%TO.N,Net-(D6-Pad2)*%
X125730000Y-58815000D02*
X125730000Y-56755000D01*
%TO.N,Net-(R3-Pad2)*%
X106045000Y-63500000D02*
X106045000Y-64135000D01*
X106966999Y-61504999D02*
X110580001Y-61504999D01*
X106045000Y-62426998D02*
X106966999Y-61504999D01*
X106045000Y-63500000D02*
X106045000Y-62426998D01*
X111125000Y-60960000D02*
X111125000Y-60565000D01*
X110580001Y-61504999D02*
X111125000Y-60960000D01*
X103799943Y-73365057D02*
X106045000Y-71120000D01*
X103799943Y-80939943D02*
X103799943Y-73365057D01*
X106045000Y-71120000D02*
X106045000Y-63500000D01*
X104775000Y-81915000D02*
X103799943Y-80939943D01*
X104775000Y-88900000D02*
X104775000Y-81915000D01*
X107950000Y-92075000D02*
X104775000Y-88900000D01*
X108185000Y-92075000D02*
X107950000Y-92075000D01*
X110410000Y-93300000D02*
X109410000Y-93300000D01*
X109410000Y-93300000D02*
X108185000Y-92075000D01*
D21*
%TO.N,Net-(C1-Pad2)*%
X114060000Y-111125000D02*
X113030000Y-112155000D01*
X115635000Y-111125000D02*
X114060000Y-111125000D01*
X109855000Y-111125000D02*
X112395000Y-111125000D01*
X113030000Y-111760000D02*
X113030000Y-112155000D01*
X112395000Y-111125000D02*
X113030000Y-111760000D01*
D22*
X115175000Y-117475000D02*
X115175000Y-118505000D01*
X110654500Y-118565010D02*
X108585000Y-116495510D01*
X115114990Y-118565010D02*
X110654500Y-118565010D01*
X115175000Y-118505000D02*
X115114990Y-118565010D01*
X108585000Y-116495510D02*
X108585000Y-113031410D01*
X106680000Y-111126410D02*
X106680000Y-111125000D01*
X108585000Y-113031410D02*
X106680000Y-111126410D01*
%TO.N,Net-(C3-Pad1)*%
X117710000Y-96600000D02*
X117710000Y-98025000D01*
X117710000Y-98025000D02*
X118110000Y-98425000D01*
X118110000Y-98425000D02*
X118110000Y-102235000D01*
X118745000Y-102870000D02*
X120872500Y-102870000D01*
X118110000Y-102235000D02*
X118745000Y-102870000D01*
X121525000Y-103522500D02*
X120872500Y-102870000D01*
X121525000Y-106680000D02*
X121525000Y-103522500D01*
%TO.N,Net-(J1-Pad5)*%
X115635000Y-112395000D02*
X114300000Y-112395000D01*
X111760000Y-112395000D02*
X109855000Y-112395000D01*
X109035010Y-111575010D02*
X109035010Y-107130010D01*
X109855000Y-112395000D02*
X109035010Y-111575010D01*
X107950000Y-106045000D02*
X106680000Y-106045000D01*
X109035010Y-107130010D02*
X107950000Y-106045000D01*
%TO.N,Net-(J1-Pad4)*%
X115635000Y-113665000D02*
X114300000Y-113665000D01*
X107950000Y-108585000D02*
X106680000Y-108585000D01*
X108585000Y-109220000D02*
X107950000Y-108585000D01*
X108585000Y-112395000D02*
X108585000Y-109220000D01*
X109855000Y-113665000D02*
X108585000Y-112395000D01*
X111760000Y-113665000D02*
X109855000Y-113665000D01*
D21*
%TO.N,/ISO_GND*%
X114060000Y-114935000D02*
X113030000Y-113905000D01*
X115635000Y-114935000D02*
X114060000Y-114935000D01*
X113030000Y-113905000D02*
X113030000Y-114935000D01*
D22*
X110829796Y-117715000D02*
X109904898Y-116790102D01*
X111125000Y-117715000D02*
X110829796Y-117715000D01*
D21*
X117870000Y-117475000D02*
X117870000Y-115810000D01*
D22*
%TO.N,Net-(C4-Pad1)*%
X117475000Y-98426411D02*
X117475000Y-102655000D01*
X117475000Y-102655000D02*
X117260000Y-102870000D01*
X116910000Y-97861411D02*
X117475000Y-98426411D01*
X116910000Y-96600000D02*
X116910000Y-97861411D01*
X117260000Y-102870000D02*
X115347500Y-102870000D01*
X114695000Y-103522500D02*
X115347500Y-102870000D01*
X114695000Y-106680000D02*
X114695000Y-103522500D01*
%TD*%
D24*
%TO.N,/ISO_GND*%
X118618000Y-116078000D02*
X114427000Y-116078000D01*
X114427000Y-115827893D01*
X114535518Y-115860812D01*
X114660000Y-115873072D01*
X115349250Y-115870000D01*
X115508000Y-115711250D01*
X115508000Y-115062000D01*
X115762000Y-115062000D01*
X115762000Y-115711250D01*
X115920750Y-115870000D01*
X116610000Y-115873072D01*
X116734482Y-115860812D01*
X116854180Y-115824502D01*
X116964494Y-115765537D01*
X117061185Y-115686185D01*
X117140537Y-115589494D01*
X117199502Y-115479180D01*
X117235812Y-115359482D01*
X117248072Y-115235000D01*
X117245000Y-115220750D01*
X117086250Y-115062000D01*
X115762000Y-115062000D01*
X115508000Y-115062000D01*
X115488000Y-115062000D01*
X115488000Y-114808000D01*
X115508000Y-114808000D01*
X115508000Y-114788000D01*
X115762000Y-114788000D01*
X115762000Y-114808000D01*
X117086250Y-114808000D01*
X117245000Y-114649250D01*
X117248072Y-114635000D01*
X117235812Y-114510518D01*
X117199502Y-114390820D01*
X117140537Y-114280506D01*
X117061185Y-114183815D01*
X116964494Y-114104463D01*
X116915902Y-114078490D01*
X116948570Y-114017372D01*
X116978663Y-113918168D01*
X116988824Y-113815000D01*
X116988824Y-113515000D01*
X116978663Y-113411832D01*
X116948570Y-113312628D01*
X116899701Y-113221201D01*
X116833935Y-113141065D01*
X116753799Y-113075299D01*
X116669051Y-113030000D01*
X116753799Y-112984701D01*
X116833935Y-112918935D01*
X116899701Y-112838799D01*
X116948570Y-112747372D01*
X116978663Y-112648168D01*
X116988824Y-112545000D01*
X116988824Y-112245000D01*
X116978663Y-112141832D01*
X116948570Y-112042628D01*
X116899701Y-111951201D01*
X116833935Y-111871065D01*
X116753799Y-111805299D01*
X116669051Y-111760000D01*
X116753799Y-111714701D01*
X116833935Y-111648935D01*
X116899701Y-111568799D01*
X116948570Y-111477372D01*
X116978663Y-111378168D01*
X116988824Y-111275000D01*
X116988824Y-110975000D01*
X116978663Y-110871832D01*
X116948570Y-110772628D01*
X116899701Y-110681201D01*
X116833935Y-110601065D01*
X116753799Y-110535299D01*
X116662372Y-110486430D01*
X116563168Y-110456337D01*
X116460000Y-110446176D01*
X114810000Y-110446176D01*
X114706832Y-110456337D01*
X114607628Y-110486430D01*
X114516201Y-110535299D01*
X114504624Y-110544800D01*
X114427000Y-110544800D01*
X114427000Y-109982000D01*
X118618000Y-109982000D01*
X118618000Y-116078000D01*
%TA.AperFunction,Conductor*%
D25*
G36*
X118618000Y-116078000D02*
G01*
X114427000Y-116078000D01*
X114427000Y-115827893D01*
X114535518Y-115860812D01*
X114660000Y-115873072D01*
X115349250Y-115870000D01*
X115508000Y-115711250D01*
X115508000Y-115062000D01*
X115762000Y-115062000D01*
X115762000Y-115711250D01*
X115920750Y-115870000D01*
X116610000Y-115873072D01*
X116734482Y-115860812D01*
X116854180Y-115824502D01*
X116964494Y-115765537D01*
X117061185Y-115686185D01*
X117140537Y-115589494D01*
X117199502Y-115479180D01*
X117235812Y-115359482D01*
X117248072Y-115235000D01*
X117245000Y-115220750D01*
X117086250Y-115062000D01*
X115762000Y-115062000D01*
X115508000Y-115062000D01*
X115488000Y-115062000D01*
X115488000Y-114808000D01*
X115508000Y-114808000D01*
X115508000Y-114788000D01*
X115762000Y-114788000D01*
X115762000Y-114808000D01*
X117086250Y-114808000D01*
X117245000Y-114649250D01*
X117248072Y-114635000D01*
X117235812Y-114510518D01*
X117199502Y-114390820D01*
X117140537Y-114280506D01*
X117061185Y-114183815D01*
X116964494Y-114104463D01*
X116915902Y-114078490D01*
X116948570Y-114017372D01*
X116978663Y-113918168D01*
X116988824Y-113815000D01*
X116988824Y-113515000D01*
X116978663Y-113411832D01*
X116948570Y-113312628D01*
X116899701Y-113221201D01*
X116833935Y-113141065D01*
X116753799Y-113075299D01*
X116669051Y-113030000D01*
X116753799Y-112984701D01*
X116833935Y-112918935D01*
X116899701Y-112838799D01*
X116948570Y-112747372D01*
X116978663Y-112648168D01*
X116988824Y-112545000D01*
X116988824Y-112245000D01*
X116978663Y-112141832D01*
X116948570Y-112042628D01*
X116899701Y-111951201D01*
X116833935Y-111871065D01*
X116753799Y-111805299D01*
X116669051Y-111760000D01*
X116753799Y-111714701D01*
X116833935Y-111648935D01*
X116899701Y-111568799D01*
X116948570Y-111477372D01*
X116978663Y-111378168D01*
X116988824Y-111275000D01*
X116988824Y-110975000D01*
X116978663Y-110871832D01*
X116948570Y-110772628D01*
X116899701Y-110681201D01*
X116833935Y-110601065D01*
X116753799Y-110535299D01*
X116662372Y-110486430D01*
X116563168Y-110456337D01*
X116460000Y-110446176D01*
X114810000Y-110446176D01*
X114706832Y-110456337D01*
X114607628Y-110486430D01*
X114516201Y-110535299D01*
X114504624Y-110544800D01*
X114427000Y-110544800D01*
X114427000Y-109982000D01*
X118618000Y-109982000D01*
X118618000Y-116078000D01*
G37*
%TD.AperFunction*%
%TD*%
M02*
